#N canvas 223 47 1217 672 12;
#X text 299 11 this is an abstraction;
#X obj 32 55 inlet;
#X obj 32 79 mtof;
#X floatatom 32 103 5 0 0 0 - - -;
#X obj 41 264 *~ 0.5;
#X obj 41 288 osc~;
#X obj 41 312 *~;
#X obj 253 145 line~;
#X obj 254 119 pack f 30;
#X obj 123 287 osc~;
#X obj 123 311 *~;
#X obj 335 144 line~;
#X obj 336 118 pack f 30;
#X obj 123 263 *~ 0.666667;
#X obj 212 287 osc~;
#X obj 212 311 *~;
#X obj 424 144 line~;
#X obj 425 118 pack f 30;
#X obj 294 286 osc~;
#X obj 294 310 *~;
#X obj 506 143 line~;
#X obj 507 117 pack f 30;
#X obj 385 287 osc~;
#X obj 385 311 *~;
#X obj 597 144 line~;
#X obj 598 118 pack f 30;
#X obj 467 286 osc~;
#X obj 467 310 *~;
#X obj 679 143 line~;
#X obj 680 117 pack f 30;
#X obj 556 286 osc~;
#X obj 556 310 *~;
#X obj 768 143 line~;
#X obj 769 117 pack f 30;
#X obj 638 285 osc~;
#X obj 638 309 *~;
#X obj 850 142 line~;
#X obj 851 116 pack f 30;
#X obj 726 285 osc~;
#X obj 726 309 *~;
#X obj 938 142 line~;
#X obj 939 116 pack f 30;
#X obj 212 263 *~ 1;
#X obj 294 262 *~ 2;
#X obj 385 263 *~ 3;
#X obj 467 262 *~ 4;
#X obj 556 262 *~ 5;
#X obj 638 261 *~ 6;
#X obj 726 261 *~ 8;
#X obj 346 389 +~;
#X obj 346 413 /~ 9;
#X obj 346 437 outlet~;
#X obj 254 95 r \$1h1;
#X obj 336 94 r \$1h2;
#X obj 425 94 r \$1h3;
#X obj 507 93 r \$1h4;
#X obj 598 94 r \$1h5;
#X obj 680 93 r \$1h6;
#X obj 769 93 r \$1h7;
#X obj 851 92 r \$1h8;
#X obj 939 92 r \$1h9;
#X connect 1 0 2 0;
#X connect 2 0 3 0;
#X connect 3 0 4 0;
#X connect 3 0 13 0;
#X connect 3 0 42 0;
#X connect 3 0 43 0;
#X connect 3 0 44 0;
#X connect 3 0 45 0;
#X connect 3 0 46 0;
#X connect 3 0 47 0;
#X connect 3 0 48 0;
#X connect 4 0 5 0;
#X connect 5 0 6 0;
#X connect 6 0 49 0;
#X connect 7 0 6 1;
#X connect 8 0 7 0;
#X connect 9 0 10 0;
#X connect 10 0 49 0;
#X connect 11 0 10 1;
#X connect 12 0 11 0;
#X connect 13 0 9 0;
#X connect 14 0 15 0;
#X connect 15 0 49 0;
#X connect 16 0 15 1;
#X connect 17 0 16 0;
#X connect 18 0 19 0;
#X connect 19 0 49 0;
#X connect 20 0 19 1;
#X connect 21 0 20 0;
#X connect 22 0 23 0;
#X connect 23 0 49 1;
#X connect 24 0 23 1;
#X connect 25 0 24 0;
#X connect 26 0 27 0;
#X connect 27 0 49 1;
#X connect 28 0 27 1;
#X connect 29 0 28 0;
#X connect 30 0 31 0;
#X connect 31 0 49 1;
#X connect 32 0 31 1;
#X connect 33 0 32 0;
#X connect 34 0 35 0;
#X connect 35 0 49 1;
#X connect 36 0 35 1;
#X connect 37 0 36 0;
#X connect 38 0 39 0;
#X connect 39 0 49 1;
#X connect 40 0 39 1;
#X connect 41 0 40 0;
#X connect 42 0 14 0;
#X connect 43 0 18 0;
#X connect 44 0 22 0;
#X connect 45 0 26 0;
#X connect 46 0 30 0;
#X connect 47 0 34 0;
#X connect 48 0 38 0;
#X connect 49 0 50 0;
#X connect 50 0 51 0;
#X connect 52 0 8 0;
#X connect 53 0 12 0;
#X connect 54 0 17 0;
#X connect 55 0 21 0;
#X connect 56 0 25 0;
#X connect 57 0 29 0;
#X connect 58 0 33 0;
#X connect 59 0 37 0;
#X connect 60 0 41 0;
