#N canvas 499 137 926 388 12;
#X text 299 11 this is an abstraction;
#X obj 11 41 inlet;
#X obj 11 65 mtof;
#X floatatom 11 89 5 0 0 0 - - -;
#X obj 11 172 *~ 0.5;
#X obj 11 196 osc~;
#X obj 11 220 *~;
#X obj 157 94 line~;
#X obj 158 68 pack f 30;
#X obj 93 195 osc~;
#X obj 93 219 *~;
#X obj 239 93 line~;
#X obj 240 67 pack f 30;
#X obj 93 171 *~ 0.666667;
#X obj 182 195 osc~;
#X obj 182 219 *~;
#X obj 328 93 line~;
#X obj 329 67 pack f 30;
#X obj 264 194 osc~;
#X obj 264 218 *~;
#X obj 410 92 line~;
#X obj 411 66 pack f 30;
#X obj 355 195 osc~;
#X obj 355 219 *~;
#X obj 501 93 line~;
#X obj 502 67 pack f 30;
#X obj 437 194 osc~;
#X obj 437 218 *~;
#X obj 583 92 line~;
#X obj 584 66 pack f 30;
#X obj 526 194 osc~;
#X obj 526 218 *~;
#X obj 672 92 line~;
#X obj 673 66 pack f 30;
#X obj 608 193 osc~;
#X obj 608 217 *~;
#X obj 754 91 line~;
#X obj 755 65 pack f 30;
#X obj 696 193 osc~;
#X obj 696 217 *~;
#X obj 842 91 line~;
#X obj 843 65 pack f 30;
#X obj 182 171 *~ 1;
#X obj 264 170 *~ 2;
#X obj 355 171 *~ 3;
#X obj 437 170 *~ 4;
#X obj 526 170 *~ 5;
#X obj 608 169 *~ 6;
#X obj 696 169 *~ 8;
#X obj 316 297 +~;
#X obj 316 321 /~ 9;
#X obj 316 345 outlet~;
#X obj 158 44 r h1;
#X obj 240 43 r h2;
#X obj 329 43 r h3;
#X obj 411 42 r h4;
#X obj 502 43 r h5;
#X obj 584 42 r h6;
#X obj 673 42 r h7;
#X obj 755 41 r h8;
#X obj 843 41 r h9;
#X connect 1 0 2 0;
#X connect 2 0 3 0;
#X connect 3 0 4 0;
#X connect 3 0 13 0;
#X connect 3 0 42 0;
#X connect 3 0 43 0;
#X connect 3 0 44 0;
#X connect 3 0 45 0;
#X connect 3 0 46 0;
#X connect 3 0 47 0;
#X connect 3 0 48 0;
#X connect 4 0 5 0;
#X connect 5 0 6 0;
#X connect 6 0 49 0;
#X connect 7 0 6 1;
#X connect 8 0 7 0;
#X connect 9 0 10 0;
#X connect 10 0 49 0;
#X connect 11 0 10 1;
#X connect 12 0 11 0;
#X connect 13 0 9 0;
#X connect 14 0 15 0;
#X connect 15 0 49 0;
#X connect 16 0 15 1;
#X connect 17 0 16 0;
#X connect 18 0 19 0;
#X connect 19 0 49 0;
#X connect 20 0 19 1;
#X connect 21 0 20 0;
#X connect 22 0 23 0;
#X connect 23 0 49 1;
#X connect 24 0 23 1;
#X connect 25 0 24 0;
#X connect 26 0 27 0;
#X connect 27 0 49 1;
#X connect 28 0 27 1;
#X connect 29 0 28 0;
#X connect 30 0 31 0;
#X connect 31 0 49 1;
#X connect 32 0 31 1;
#X connect 33 0 32 0;
#X connect 34 0 35 0;
#X connect 35 0 49 1;
#X connect 36 0 35 1;
#X connect 37 0 36 0;
#X connect 38 0 39 0;
#X connect 39 0 49 1;
#X connect 40 0 39 1;
#X connect 41 0 40 0;
#X connect 42 0 14 0;
#X connect 43 0 18 0;
#X connect 44 0 22 0;
#X connect 45 0 26 0;
#X connect 46 0 30 0;
#X connect 47 0 34 0;
#X connect 48 0 38 0;
#X connect 49 0 50 0;
#X connect 50 0 51 0;
#X connect 52 0 8 0;
#X connect 53 0 12 0;
#X connect 54 0 17 0;
#X connect 55 0 21 0;
#X connect 56 0 25 0;
#X connect 57 0 29 0;
#X connect 58 0 33 0;
#X connect 59 0 37 0;
#X connect 60 0 41 0;
