#N canvas 381 57 979 765 12;
#X floatatom 394 67 5 0 0 0 - - -;
#X obj 394 117 sel 0, f 16;
#X obj 239 156 bng 15 250 50 0 empty empty empty 17 7 0 10 -262144
-1 -1;
#X floatatom 546 148 5 0 0 0 - - -;
#X obj 394 90 / 127;
#X obj 417 417 line~;
#X floatatom 271 236 5 0 0 0 - - -;
#X obj 240 265 pack;
#X msg 238 234 0;
#X obj 628 210 bng 15 250 50 0 empty empty empty 17 7 0 10 -262144
-1 -1;
#X floatatom 661 309 5 0 0 0 - - -;
#X obj 630 338 pack;
#X msg 628 231 1;
#X obj 487 256 del;
#X floatatom 510 231 5 0 0 0 - - -;
#X obj 486 210 bng 15 250 50 0 empty empty empty 17 7 0 10 -262144
-1 -1;
#X floatatom 520 278 5 0 0 0 - - -;
#X obj 520 301 dbtorms;
#X obj 487 302 f;
#X obj 487 352 pack;
#X floatatom 530 351 5 0 0 0 - - -;
#X obj 417 441 *~;
#X obj 546 171 t b b f, f 24;
#X floatatom 711 419 5 0 0 0 - - -;
#X obj 239 176 t b b;
#X msg 288 177 stop;
#X obj 394 37 inlet;
#X obj 417 465 outlet~;
#X text 436 32 note on: 1-127;
#X text 436 45 note off: 0;
#X text 438 89 velocity devided by 127 to stay between 0 & 127;
#X text 247 416 ramp to avoid roughness;
#X text 197 138 release:;
#X text 444 190 decay:;
#X text 575 193 attack:;
#X text 389 17 input for adsr will only be velocity!;
#X text 377 134 note off;
#X text 469 134 note on;
#X text 314 257 delay until attack ends:;
#X text 24 13 S: value between 0~1 \, amplitude;
#X text 25 27 A \, D \, R: values of time (ms);
#X obj 271 212 r \$1R;
#X obj 510 207 r \$1A;
#X obj 520 254 r \$1S;
#X obj 661 285 r \$1A;
#X obj 530 327 r \$1D;
#X connect 0 0 4 0;
#X connect 1 0 2 0;
#X connect 1 1 3 0;
#X connect 2 0 24 0;
#X connect 3 0 22 0;
#X connect 4 0 1 0;
#X connect 5 0 21 0;
#X connect 6 0 7 1;
#X connect 7 0 5 0;
#X connect 8 0 7 0;
#X connect 9 0 12 0;
#X connect 10 0 11 1;
#X connect 11 0 5 0;
#X connect 12 0 11 0;
#X connect 13 0 18 0;
#X connect 14 0 13 1;
#X connect 15 0 13 0;
#X connect 16 0 17 0;
#X connect 17 0 18 1;
#X connect 18 0 19 0;
#X connect 19 0 5 0;
#X connect 20 0 19 1;
#X connect 21 0 27 0;
#X connect 22 0 15 0;
#X connect 22 1 9 0;
#X connect 22 2 23 0;
#X connect 23 0 21 1;
#X connect 24 0 8 0;
#X connect 24 1 25 0;
#X connect 25 0 13 0;
#X connect 26 0 0 0;
#X connect 41 0 6 0;
#X connect 42 0 14 0;
#X connect 43 0 16 0;
#X connect 44 0 10 0;
#X connect 45 0 20 0;
