#N canvas 172 161 1167 586 12;
#X obj 48 126 bng 15 250 50 0 empty empty empty 17 7 0 10 -262144 -1
-1;
#X floatatom 48 199 5 0 0 0 - - -;
#X obj 48 222 sel 0 1 2 3 4 5 6 7, f 57;
#X obj 48 257 bng 15 250 50 0 empty empty empty 17 7 0 10 -262144 -1
-1;
#X obj 97 257 bng 15 250 50 0 empty empty empty 17 7 0 10 -262144 -1
-1;
#X obj 147 258 bng 15 250 50 0 empty empty empty 17 7 0 10 -262144
-1 -1;
#X obj 196 258 bng 15 250 50 0 empty empty empty 17 7 0 10 -262144
-1 -1;
#X obj 246 258 bng 15 250 50 0 empty empty empty 17 7 0 10 -262144
-1 -1;
#X obj 295 258 bng 15 250 50 0 empty empty empty 17 7 0 10 -262144
-1 -1;
#X obj 345 259 bng 15 250 50 0 empty empty empty 17 7 0 10 -262144
-1 -1;
#X obj 394 259 bng 15 250 50 0 empty empty empty 17 7 0 10 -262144
-1 -1;
#X obj 48 154 random 8;
#X obj 217 497 pack f f;
#X msg 48 290 48;
#X msg 148 290 52;
#X msg 196 289 53;
#X msg 247 291 55;
#X msg 295 291 57;
#X msg 345 291 59;
#X msg 393 291 60;
#X msg 12 62 stop;
#X msg 96 290 52;
#X obj 217 433 makenote 60 500;
#X obj 217 521 s notes;
#X obj 48 85 metro 1000;
#X obj 48 39 r ON;
#X connect 0 0 11 0;
#X connect 1 0 2 0;
#X connect 2 0 3 0;
#X connect 2 1 4 0;
#X connect 2 2 5 0;
#X connect 2 3 6 0;
#X connect 2 4 7 0;
#X connect 2 5 8 0;
#X connect 2 6 9 0;
#X connect 2 7 10 0;
#X connect 3 0 13 0;
#X connect 4 0 21 0;
#X connect 5 0 14 0;
#X connect 6 0 15 0;
#X connect 7 0 16 0;
#X connect 8 0 17 0;
#X connect 9 0 18 0;
#X connect 10 0 19 0;
#X connect 11 0 1 0;
#X connect 12 0 23 0;
#X connect 13 0 22 0;
#X connect 14 0 22 0;
#X connect 15 0 22 0;
#X connect 16 0 22 0;
#X connect 17 0 22 0;
#X connect 18 0 22 0;
#X connect 19 0 22 0;
#X connect 20 0 24 0;
#X connect 21 0 22 0;
#X connect 22 0 12 0;
#X connect 22 1 12 1;
#X connect 24 0 0 0;
#X connect 25 0 24 0;
