#N canvas 263 163 1177 471 12;
#X obj 63 33 loadbang;
#X msg 63 57 30000;
#X obj 145 31 loadbang;
#X msg 145 55 60;
#X floatatom 145 79 5 0 0 0 - - -;
#X obj 96 115 /;
#X floatatom 96 139 5 0 0 0 - - -;
#X obj 96 162 send 4th_time;
#X obj 96 83 bng 15 250 50 0 empty empty empty 17 7 0 10 -262144 -1
-1;
#X obj 87 364 metro;
#X obj 119 290 r 4th_time;
#X obj 119 314 * 4;
#X floatatom 119 338 5 0 0 0 - - -;
#X obj 137 364 s whole_time;
#X obj 87 398 bng 15 250 50 0 empty empty empty 17 7 0 10 -262144 -1
-1;
#X obj 87 418 s whole_note;
#X obj 246 359 metro;
#X obj 278 285 r 4th_time;
#X floatatom 278 333 5 0 0 0 - - -;
#X obj 246 393 bng 15 250 50 0 empty empty empty 17 7 0 10 -262144
-1 -1;
#X obj 278 309 * 1;
#X obj 246 413 s 4th_note;
#X obj 405 354 metro;
#X obj 437 280 r 4th_time;
#X floatatom 437 328 5 0 0 0 - - -;
#X obj 405 388 bng 15 250 50 0 empty empty empty 17 7 0 10 -262144
-1 -1;
#X obj 437 304 / 2;
#X obj 455 354 s 8th_time;
#X obj 405 408 s 8th_note;
#X obj 564 349 metro;
#X obj 596 275 r 4th_time;
#X floatatom 596 323 5 0 0 0 - - -;
#X obj 564 383 bng 15 250 50 0 empty empty empty 17 7 0 10 -262144
-1 -1;
#X obj 614 349 s 16th_time;
#X obj 564 403 s 16th_note;
#X obj 596 299 / 4;
#X text 41 257 Make Note:;
#X text 20 14 BPM:;
#X obj 327 19 tgl 15 0 empty empty empty 17 7 0 10 -262144 -1 -1 0
1;
#X obj 680 32 sel 0;
#X obj 680 60 bng 15 250 50 0 empty empty empty 17 7 0 10 -262144 -1
-1;
#X msg 680 80 -1;
#X obj 738 118 int 1;
#X obj 770 64 r whole_note;
#X obj 770 93 bng 15 250 50 0 empty empty empty 17 7 0 10 -262144 -1
-1;
#X floatatom 738 142 5 0 0 0 - - -;
#X obj 738 165 % 2;
#X obj 738 189 + 1;
#X obj 738 213 sel 1;
#X obj 738 242 bng 15 250 50 0 empty empty empty 17 7 0 10 -262144
-1 -1;
#X obj 615 205 sel 0;
#X msg 679 235 1;
#X obj 672 205 loadbang;
#X obj 738 266 tgl 15 0 empty empty empty 17 7 0 10 -262144 -1 -1 1
1;
#X obj 738 286 s Chord;
#X obj 327 42 s noteON;
#X obj 39 295 r noteON;
#X obj 198 290 r noteON;
#X obj 357 285 r noteON;
#X obj 516 280 r noteON;
#X obj 680 8 r noteON;
#X obj 615 181 r noteON;
#X connect 0 0 1 0;
#X connect 1 0 5 0;
#X connect 2 0 3 0;
#X connect 3 0 4 0;
#X connect 4 0 5 0;
#X connect 4 0 8 0;
#X connect 5 0 6 0;
#X connect 6 0 7 0;
#X connect 8 0 5 0;
#X connect 9 0 14 0;
#X connect 10 0 11 0;
#X connect 11 0 12 0;
#X connect 12 0 13 0;
#X connect 12 0 9 1;
#X connect 14 0 15 0;
#X connect 16 0 19 0;
#X connect 17 0 20 0;
#X connect 18 0 16 1;
#X connect 19 0 21 0;
#X connect 20 0 18 0;
#X connect 22 0 25 0;
#X connect 23 0 26 0;
#X connect 24 0 22 1;
#X connect 24 0 27 0;
#X connect 25 0 28 0;
#X connect 26 0 24 0;
#X connect 29 0 32 0;
#X connect 30 0 35 0;
#X connect 31 0 29 1;
#X connect 31 0 33 0;
#X connect 32 0 34 0;
#X connect 35 0 31 0;
#X connect 38 0 55 0;
#X connect 39 0 40 0;
#X connect 40 0 41 0;
#X connect 41 0 42 0;
#X connect 42 0 45 0;
#X connect 43 0 44 0;
#X connect 44 0 42 1;
#X connect 45 0 46 0;
#X connect 46 0 47 0;
#X connect 47 0 48 0;
#X connect 48 0 49 0;
#X connect 49 0 53 0;
#X connect 50 0 51 0;
#X connect 51 0 53 0;
#X connect 52 0 51 0;
#X connect 53 0 54 0;
#X connect 56 0 9 0;
#X connect 57 0 16 0;
#X connect 58 0 22 0;
#X connect 59 0 29 0;
#X connect 60 0 39 0;
#X connect 61 0 50 0;
