#N canvas 20 23 1420 760 12;
#X obj 148 157 s ON;
#X obj 147 21 r Pdstart;
#X obj 148 133 tgl 15 0 empty empty empty 17 7 0 10 -262144 -1 -1 0
1;
#X obj 147 58 bng 15 250 50 0 empty empty empty 17 7 0 10 -262144 -1
-1;
#X obj 147 78 del 500;
#X obj 567 673 dac~;
#X obj 380 585 *~ 0.25;
#X obj 486 586 *~ 0.25;
#X obj 592 586 *~ 0.25;
#X obj 697 583 *~;
#X msg 806 609 0.25;
#X msg 861 609 1;
#X obj 806 560 r n;
#X obj 806 584 sel 1 2 3 4;
#X obj 211 496 mtof;
#X obj 387 495 mtof;
#X obj 561 494 mtof;
#X obj 211 520 osc~;
#X obj 387 520 osc~;
#X obj 561 519 osc~;
#X obj 441 401 bng 15 250 50 0 empty empty empty 17 7 0 10 -262144
-1 -1;
#X obj 268 520 line~;
#X obj 251 552 *~;
#X msg 324 469 0.7 80;
#X obj 444 520 line~;
#X obj 476 558 *~;
#X msg 502 469 0.7 80;
#X obj 617 520 line~;
#X obj 583 552 *~;
#X msg 676 468 0.7 80;
#X obj 211 469 r note1;
#X obj 387 469 r note2;
#X obj 561 468 r note3;
#N canvas 57 23 1324 589 constructChord 0;
#X obj 510 34 sel 1 2 3, f 21;
#X obj 510 11 r GRP;
#X obj 30 236 sel 1 2 3 4 5 6 7 8 9, f 46;
#X msg 30 260 48;
#X msg 65 260 52;
#X msg 100 260 55;
#X msg 136 260 60;
#X msg 171 260 64;
#X msg 207 260 67;
#X msg 242 260 72;
#X msg 278 260 76;
#X msg 313 260 79;
#X obj 29 119 random 7;
#X floatatom 29 143 5 0 0 0 - - -;
#X obj 65 176 + 1;
#X floatatom 65 200 5 0 0 0 - - -;
#X obj 122 176 + 2;
#X floatatom 122 200 5 0 0 0 - - -;
#X obj 66 314 sel 1 2 3 4 5 6 7 8 9, f 46;
#X msg 66 338 48;
#X msg 101 338 52;
#X msg 136 338 55;
#X msg 172 338 60;
#X msg 207 338 64;
#X msg 243 338 67;
#X msg 278 338 72;
#X msg 314 338 76;
#X msg 349 338 79;
#X obj 122 409 sel 1 2 3 4 5 6 7 8 9, f 46;
#X msg 122 433 48;
#X msg 157 433 52;
#X msg 192 433 55;
#X msg 228 433 60;
#X msg 263 433 64;
#X msg 299 433 67;
#X msg 334 433 72;
#X msg 370 433 76;
#X msg 405 433 79;
#X obj 169 291 s note1;
#X obj 213 385 s note2;
#X obj 268 477 s note3;
#X obj 466 237 sel 1 2 3 4 5 6 7 8 9, f 46;
#X obj 465 120 random 7;
#X floatatom 465 144 5 0 0 0 - - -;
#X obj 501 177 + 1;
#X floatatom 501 201 5 0 0 0 - - -;
#X obj 558 177 + 2;
#X floatatom 558 201 5 0 0 0 - - -;
#X obj 588 294 s note1;
#X obj 641 382 s note2;
#X obj 692 476 s note3;
#X msg 466 261 47;
#X msg 501 261 52;
#X msg 536 261 55;
#X msg 572 261 59;
#X msg 607 261 64;
#X msg 643 261 67;
#X msg 678 261 71;
#X msg 714 261 76;
#X msg 749 261 79;
#X obj 502 326 sel 1 2 3 4 5 6 7 8 9, f 46;
#X msg 502 350 47;
#X msg 537 350 52;
#X msg 572 350 55;
#X msg 608 350 59;
#X msg 643 350 64;
#X msg 679 350 67;
#X msg 714 350 71;
#X msg 770 350 76;
#X msg 805 350 79;
#X obj 559 413 sel 1 2 3 4 5 6 7 8 9, f 46;
#X msg 559 437 47;
#X msg 594 437 52;
#X msg 629 437 55;
#X msg 665 437 59;
#X msg 700 437 64;
#X msg 736 437 67;
#X msg 771 437 71;
#X msg 807 437 76;
#X msg 842 437 79;
#X obj 842 225 sel 1 2 3 4 5 6 7 8 9, f 46;
#X obj 841 108 random 7;
#X floatatom 841 132 5 0 0 0 - - -;
#X obj 877 165 + 1;
#X floatatom 877 189 5 0 0 0 - - -;
#X obj 934 165 + 2;
#X floatatom 934 189 5 0 0 0 - - -;
#X obj 964 282 s note1;
#X obj 1017 370 s note2;
#X obj 1068 464 s note3;
#X msg 842 249 45;
#X msg 877 249 48;
#X msg 912 249 52;
#X msg 948 249 57;
#X msg 983 249 60;
#X msg 1019 249 64;
#X msg 1054 249 69;
#X msg 1090 249 72;
#X msg 1125 249 76;
#X obj 879 311 sel 1 2 3 4 5 6 7 8 9, f 46;
#X msg 879 335 45;
#X msg 914 335 48;
#X msg 949 335 52;
#X msg 985 335 57;
#X msg 1020 335 60;
#X msg 1056 335 64;
#X msg 1091 335 69;
#X msg 1127 335 72;
#X msg 1162 335 76;
#X obj 937 403 sel 1 2 3 4 5 6 7 8 9, f 46;
#X msg 937 427 45;
#X msg 972 427 48;
#X msg 1007 427 52;
#X msg 1043 427 57;
#X msg 1078 427 60;
#X msg 1114 427 64;
#X msg 1149 427 69;
#X msg 1185 427 72;
#X msg 1220 427 76;
#X obj 104 134 s rando;
#X obj 539 133 s rando;
#X obj 921 122 s rando;
#X connect 0 0 12 0;
#X connect 0 1 42 0;
#X connect 0 2 81 0;
#X connect 1 0 0 0;
#X connect 2 0 3 0;
#X connect 2 1 4 0;
#X connect 2 2 5 0;
#X connect 2 3 6 0;
#X connect 2 4 7 0;
#X connect 2 5 8 0;
#X connect 2 6 9 0;
#X connect 2 7 10 0;
#X connect 2 8 11 0;
#X connect 3 0 38 0;
#X connect 4 0 38 0;
#X connect 5 0 38 0;
#X connect 6 0 38 0;
#X connect 7 0 38 0;
#X connect 8 0 38 0;
#X connect 9 0 38 0;
#X connect 10 0 38 0;
#X connect 11 0 38 0;
#X connect 12 0 13 0;
#X connect 12 0 119 0;
#X connect 13 0 2 0;
#X connect 13 0 14 0;
#X connect 13 0 16 0;
#X connect 14 0 15 0;
#X connect 15 0 18 0;
#X connect 16 0 17 0;
#X connect 17 0 28 0;
#X connect 18 0 19 0;
#X connect 18 1 20 0;
#X connect 18 2 21 0;
#X connect 18 3 22 0;
#X connect 18 4 23 0;
#X connect 18 5 24 0;
#X connect 18 6 25 0;
#X connect 18 7 26 0;
#X connect 18 8 27 0;
#X connect 19 0 39 0;
#X connect 20 0 39 0;
#X connect 21 0 39 0;
#X connect 22 0 39 0;
#X connect 23 0 39 0;
#X connect 24 0 39 0;
#X connect 25 0 39 0;
#X connect 26 0 39 0;
#X connect 27 0 39 0;
#X connect 28 0 29 0;
#X connect 28 1 30 0;
#X connect 28 2 31 0;
#X connect 28 3 32 0;
#X connect 28 4 33 0;
#X connect 28 5 34 0;
#X connect 28 6 35 0;
#X connect 28 7 36 0;
#X connect 28 8 37 0;
#X connect 29 0 40 0;
#X connect 30 0 40 0;
#X connect 31 0 40 0;
#X connect 32 0 40 0;
#X connect 33 0 40 0;
#X connect 34 0 40 0;
#X connect 35 0 40 0;
#X connect 36 0 40 0;
#X connect 37 0 40 0;
#X connect 41 0 51 0;
#X connect 41 1 52 0;
#X connect 41 2 53 0;
#X connect 41 3 54 0;
#X connect 41 4 55 0;
#X connect 41 5 56 0;
#X connect 41 6 57 0;
#X connect 41 7 58 0;
#X connect 41 8 59 0;
#X connect 42 0 43 0;
#X connect 42 0 120 0;
#X connect 43 0 41 0;
#X connect 43 0 44 0;
#X connect 43 0 46 0;
#X connect 44 0 45 0;
#X connect 45 0 60 0;
#X connect 46 0 47 0;
#X connect 47 0 70 0;
#X connect 51 0 48 0;
#X connect 52 0 48 0;
#X connect 53 0 48 0;
#X connect 54 0 48 0;
#X connect 55 0 48 0;
#X connect 56 0 48 0;
#X connect 57 0 48 0;
#X connect 58 0 48 0;
#X connect 59 0 48 0;
#X connect 60 0 61 0;
#X connect 60 1 62 0;
#X connect 60 2 63 0;
#X connect 60 3 64 0;
#X connect 60 4 65 0;
#X connect 60 5 66 0;
#X connect 60 6 67 0;
#X connect 60 7 68 0;
#X connect 60 8 69 0;
#X connect 61 0 49 0;
#X connect 62 0 49 0;
#X connect 63 0 49 0;
#X connect 64 0 49 0;
#X connect 65 0 49 0;
#X connect 66 0 49 0;
#X connect 67 0 49 0;
#X connect 68 0 49 0;
#X connect 69 0 49 0;
#X connect 70 0 71 0;
#X connect 70 1 72 0;
#X connect 70 2 73 0;
#X connect 70 3 74 0;
#X connect 70 4 75 0;
#X connect 70 5 76 0;
#X connect 70 6 77 0;
#X connect 70 7 78 0;
#X connect 70 8 79 0;
#X connect 71 0 50 0;
#X connect 72 0 50 0;
#X connect 73 0 50 0;
#X connect 74 0 50 0;
#X connect 75 0 50 0;
#X connect 76 0 50 0;
#X connect 77 0 50 0;
#X connect 78 0 50 0;
#X connect 79 0 50 0;
#X connect 80 0 90 0;
#X connect 80 1 91 0;
#X connect 80 2 92 0;
#X connect 80 3 93 0;
#X connect 80 4 94 0;
#X connect 80 5 95 0;
#X connect 80 6 96 0;
#X connect 80 7 97 0;
#X connect 80 8 98 0;
#X connect 81 0 82 0;
#X connect 81 0 121 0;
#X connect 82 0 80 0;
#X connect 82 0 83 0;
#X connect 82 0 85 0;
#X connect 83 0 84 0;
#X connect 84 0 99 0;
#X connect 85 0 86 0;
#X connect 86 0 109 0;
#X connect 90 0 87 0;
#X connect 91 0 87 0;
#X connect 92 0 87 0;
#X connect 93 0 87 0;
#X connect 94 0 87 0;
#X connect 95 0 87 0;
#X connect 96 0 87 0;
#X connect 97 0 87 0;
#X connect 98 0 87 0;
#X connect 99 0 100 0;
#X connect 99 1 101 0;
#X connect 99 2 102 0;
#X connect 99 3 103 0;
#X connect 99 4 104 0;
#X connect 99 5 105 0;
#X connect 99 6 106 0;
#X connect 99 7 107 0;
#X connect 99 8 108 0;
#X connect 100 0 88 0;
#X connect 101 0 88 0;
#X connect 102 0 88 0;
#X connect 103 0 88 0;
#X connect 104 0 88 0;
#X connect 105 0 88 0;
#X connect 106 0 88 0;
#X connect 107 0 88 0;
#X connect 108 0 88 0;
#X connect 109 0 110 0;
#X connect 109 1 111 0;
#X connect 109 2 112 0;
#X connect 109 3 113 0;
#X connect 109 4 114 0;
#X connect 109 5 115 0;
#X connect 109 6 116 0;
#X connect 109 7 117 0;
#X connect 109 8 118 0;
#X connect 110 0 89 0;
#X connect 111 0 89 0;
#X connect 112 0 89 0;
#X connect 113 0 89 0;
#X connect 114 0 89 0;
#X connect 115 0 89 0;
#X connect 116 0 89 0;
#X connect 117 0 89 0;
#X connect 118 0 89 0;
#X restore 26 247 pd constructChord;
#X obj 268 469 del 500;
#X obj 443 469 del 500;
#X obj 618 468 del 500;
#X msg 268 493 0 1000;
#X msg 444 493 0 1000;
#X msg 618 492 0 1000;
#X obj 485 49 sel 0;
#X obj 485 74 bng 15 250 50 0 empty empty empty 17 7 0 10 -262144 -1
-1;
#X msg 485 94 -1;
#X floatatom 529 142 5 0 0 0 - - -;
#X obj 529 189 + 1;
#X floatatom 529 213 5 0 0 0 - - -;
#X obj 529 263 bng 15 250 50 0 empty empty empty 17 7 0 10 -262144
-1 -1;
#X obj 593 119 + 1;
#X obj 529 81 bng 15 250 50 0 empty empty empty 17 7 0 10 -262144 -1
-1;
#X obj 619 264 bng 15 250 50 0 empty empty empty 17 7 0 10 -262144
-1 -1;
#X obj 799 265 bng 15 250 50 0 empty empty empty 17 7 0 10 -262144
-1 -1;
#X floatatom 449 239 5 0 0 0 - - -;
#X obj 449 286 + 1;
#X obj 488 215 + 1;
#X floatatom 449 310 5 0 0 0 - - -;
#X obj 449 215 f 1;
#X obj 529 118 f 1;
#X obj 512 350 bng 15 250 50 0 empty empty empty 17 7 0 10 -262144
-1 -1;
#X obj 569 351 bng 15 250 50 0 empty empty empty 17 7 0 10 -262144
-1 -1;
#X obj 626 351 bng 15 250 50 0 empty empty empty 17 7 0 10 -262144
-1 -1;
#X obj 529 165 % 4;
#X floatatom 1018 265 5 0 0 0 - - -;
#X obj 1018 312 + 1;
#X obj 1060 240 + 1;
#X floatatom 1018 336 5 0 0 0 - - -;
#X obj 1018 241 f 1;
#X obj 751 351 bng 15 250 50 0 empty empty empty 17 7 0 10 -262144
-1 -1;
#X obj 809 352 bng 15 250 50 0 empty empty empty 17 7 0 10 -262144
-1 -1;
#X obj 868 352 bng 15 250 50 0 empty empty empty 17 7 0 10 -262144
-1 -1;
#X obj 529 236 sel 1 2 3 4, f 52;
#X obj 709 264 bng 15 250 50 0 empty empty empty 17 7 0 10 -262144
-1 -1;
#X obj 515 11 r ON;
#X obj 400 62 loadbang;
#X obj 683 351 bng 15 250 50 0 empty empty empty 17 7 0 10 -262144
-1 -1;
#X obj 512 324 sel 1 2 3 4, f 33;
#X obj 751 324 sel 1 2 3 4, f 34;
#X obj 927 352 bng 15 250 50 0 empty empty empty 17 7 0 10 -262144
-1 -1;
#X obj 449 262 % 4;
#X obj 1018 288 % 4;
#X obj 404 171 sel 0;
#X obj 404 196 bng 15 250 50 0 empty empty empty 17 7 0 10 -262144
-1 -1;
#X msg 404 216 -1;
#X obj 404 142 r ON;
#X obj 338 164 loadbang;
#X obj 1111 219 sel 0;
#X obj 1111 244 bng 15 250 50 0 empty empty empty 17 7 0 10 -262144
-1 -1;
#X msg 1111 264 -1;
#X obj 1111 190 r ON;
#X obj 1045 212 loadbang;
#X obj 529 48 metro 1000;
#X obj 742 411 mtof;
#X floatatom 742 436 5 0 0 0 - - -;
#X obj 742 459 osc~;
#X msg 512 370 60;
#X msg 569 371 59;
#X msg 626 371 57;
#X msg 683 371 59;
#X msg 751 371 72;
#X msg 809 372 71;
#X msg 868 372 69;
#X msg 927 372 71;
#X msg 709 288 67;
#X msg 619 288 64;
#X obj 847 458 line~;
#X obj 950 143 del 500;
#X obj 784 494 *~;
#X msg 1009 143 0.7 80;
#X msg 950 167 0 500;
#X obj 578 216 s n;
#X obj 404 336 s GRP;
#X connect 1 0 3 0;
#X connect 2 0 0 0;
#X connect 3 0 4 0;
#X connect 4 0 2 0;
#X connect 6 0 5 0;
#X connect 6 0 5 1;
#X connect 7 0 5 0;
#X connect 7 0 5 1;
#X connect 8 0 5 0;
#X connect 8 0 5 1;
#X connect 9 0 5 1;
#X connect 9 0 5 0;
#X connect 10 0 9 1;
#X connect 11 0 9 1;
#X connect 12 0 13 0;
#X connect 13 0 10 0;
#X connect 13 1 11 0;
#X connect 13 2 11 0;
#X connect 13 3 11 0;
#X connect 13 4 11 0;
#X connect 14 0 17 0;
#X connect 15 0 18 0;
#X connect 16 0 19 0;
#X connect 17 0 22 0;
#X connect 18 0 25 0;
#X connect 19 0 28 0;
#X connect 20 0 23 0;
#X connect 20 0 26 0;
#X connect 20 0 29 0;
#X connect 20 0 34 0;
#X connect 20 0 35 0;
#X connect 20 0 36 0;
#X connect 21 0 22 1;
#X connect 22 0 6 0;
#X connect 23 0 21 0;
#X connect 24 0 25 1;
#X connect 25 0 7 0;
#X connect 26 0 24 0;
#X connect 27 0 28 1;
#X connect 28 0 8 0;
#X connect 29 0 27 0;
#X connect 30 0 14 0;
#X connect 31 0 15 0;
#X connect 32 0 16 0;
#X connect 34 0 37 0;
#X connect 35 0 38 0;
#X connect 36 0 39 0;
#X connect 37 0 21 0;
#X connect 38 0 24 0;
#X connect 39 0 27 0;
#X connect 40 0 41 0;
#X connect 41 0 42 0;
#X connect 42 0 56 0;
#X connect 43 0 60 0;
#X connect 44 0 45 0;
#X connect 45 0 69 0;
#X connect 45 0 108 0;
#X connect 46 0 55 0;
#X connect 47 0 56 1;
#X connect 48 0 56 0;
#X connect 49 0 102 0;
#X connect 50 0 65 0;
#X connect 51 0 77 0;
#X connect 52 0 54 0;
#X connect 53 0 55 1;
#X connect 54 0 74 0;
#X connect 54 0 20 0;
#X connect 54 0 109 0;
#X connect 55 0 51 0;
#X connect 55 0 53 0;
#X connect 56 0 43 0;
#X connect 56 0 47 0;
#X connect 57 0 93 0;
#X connect 58 0 94 0;
#X connect 59 0 95 0;
#X connect 60 0 44 0;
#X connect 61 0 78 0;
#X connect 62 0 64 0;
#X connect 63 0 65 1;
#X connect 64 0 75 0;
#X connect 65 0 61 0;
#X connect 65 0 63 0;
#X connect 66 0 97 0;
#X connect 67 0 98 0;
#X connect 68 0 99 0;
#X connect 69 0 46 0;
#X connect 69 1 49 0;
#X connect 69 2 70 0;
#X connect 69 3 50 0;
#X connect 70 0 101 0;
#X connect 71 0 40 0;
#X connect 71 0 89 0;
#X connect 72 0 41 0;
#X connect 73 0 96 0;
#X connect 74 0 57 0;
#X connect 74 1 58 0;
#X connect 74 2 59 0;
#X connect 74 3 73 0;
#X connect 75 0 66 0;
#X connect 75 1 67 0;
#X connect 75 2 68 0;
#X connect 75 3 76 0;
#X connect 76 0 100 0;
#X connect 77 0 52 0;
#X connect 78 0 62 0;
#X connect 79 0 80 0;
#X connect 80 0 81 0;
#X connect 81 0 55 0;
#X connect 82 0 79 0;
#X connect 83 0 80 0;
#X connect 84 0 85 0;
#X connect 85 0 86 0;
#X connect 86 0 65 0;
#X connect 87 0 84 0;
#X connect 88 0 85 0;
#X connect 89 0 48 0;
#X connect 89 0 104 0;
#X connect 89 0 106 0;
#X connect 90 0 91 0;
#X connect 91 0 92 0;
#X connect 92 0 105 0;
#X connect 93 0 90 0;
#X connect 94 0 90 0;
#X connect 95 0 90 0;
#X connect 96 0 90 0;
#X connect 97 0 90 0;
#X connect 98 0 90 0;
#X connect 99 0 90 0;
#X connect 100 0 90 0;
#X connect 101 0 90 0;
#X connect 102 0 90 0;
#X connect 103 0 105 1;
#X connect 104 0 107 0;
#X connect 105 0 9 0;
#X connect 106 0 103 0;
#X connect 107 0 103 0;
