#N canvas 0 293 1440 732 12;
#X floatatom 227 81 5 0 0 0 - - -;
#X text 156 81 pitch ->;
#X text 334 82 <- velocity (0-127) (strength \, intensity), f 22;
#X floatatom 181 149 5 0 0 0 - - -;
#X floatatom 263 150 5 0 0 0 - - -;
#X floatatom 310 152 5 0 0 0 - - -;
#X obj 223 181 pack f f f;
#X text 111 149 voice no.;
#X text 221 149 pitch;
#X text 350 153 velocity;
#X obj 277 394 +~;
#X obj 277 462 dac~;
#X obj 223 209 route 1 2 3 4 5 6 7 8;
#X obj 277 423 /~ 8;
#X text 7 236 abstraction:;
#X obj 227 117 poly 8 1, f 10;
#N canvas 362 118 1038 511 hidden 0;
#X obj 56 12 key;
#X floatatom 56 36 5 0 0 0 - - -;
#X floatatom 56 83 5 0 0 0 - - -;
#X obj 56 59 makenote 100 500;
#X floatatom 165 84 5 0 0 0 - - -;
#X floatatom 490 355 5 0 0 0 - - -;
#X obj 490 378 s A;
#X floatatom 540 355 5 0 0 0 - - -;
#X floatatom 591 354 5 0 0 0 - - -;
#X floatatom 641 354 5 0 0 0 - - -;
#X obj 540 378 s D;
#X obj 591 377 s S;
#X obj 641 377 s R;
#X obj 490 329 unpack f f f f, f 22;
#X msg 490 299 30 50 95 900;
#X obj 477 94 vsl 25 100 0 1 0 0 empty empty empty 0 -9 0 10 -262144
-1 -1 0 1;
#X obj 477 202 s h1;
#X obj 518 94 vsl 25 100 0 1 0 0 empty empty empty 0 -9 0 10 -262144
-1 -1 0 1;
#X obj 558 94 vsl 25 100 0 1 0 0 empty empty empty 0 -9 0 10 -262144
-1 -1 0 1;
#X obj 599 94 vsl 25 100 0 1 0 0 empty empty empty 0 -9 0 10 -262144
-1 -1 0 1;
#X obj 639 94 vsl 25 100 0 1 0 0 empty empty empty 0 -9 0 10 -262144
-1 -1 0 1;
#X obj 680 94 vsl 25 100 0 1 0 0 empty empty empty 0 -9 0 10 -262144
-1 -1 0 1;
#X obj 720 94 vsl 25 100 0 1 0 0 empty empty empty 0 -9 0 10 -262144
-1 -1 0 1;
#X obj 761 94 vsl 25 100 0 1 0 0 empty empty empty 0 -9 0 10 -262144
-1 -1 0 1;
#X obj 518 202 s h2;
#X obj 558 202 s h3;
#X obj 599 202 s h4;
#X obj 639 202 s h5;
#X obj 680 202 s h6;
#X obj 720 202 s h7;
#X obj 761 202 s h8;
#X msg 317 237 \; h1 1 \; h2 1 \; h3 0.5 \; h4 0.3 \; h5 0.1 \; h6
0.7 \; h7 0.35 \; h8 0.2 \; A 30 \; D 34 \; S 90 \; R 400 \;;
#X msg 394 37 \; h1 0.1 \; h2 0.3 \; h3 0.5 \; h4 1 \; h5 0.8 \; h6
0.1 \; h7 0.65 \; h8 0.2;
#X msg 477 36 0.8 0.8 0.8 0.3 0.3 0.3 0.5 0.5;
#X obj 477 60 unpack f f f f f f f f, f 41;
#X text 390 0 Harmonics Preset styles :::::::::::::::::::::::::::::::::
:::::::::::::::::::::::::::::::::::::::::::::::::::::::::, f 58;
#X text 486 259 ADSR Preset :::::::::::::::: ::::::::::::::::::::::::::::
;
#X text 311 200 Full Preset: ::::::::::::, f 12;
#X text 649 37 hit here;
#X connect 0 0 1 0;
#X connect 1 0 3 0;
#X connect 3 0 2 0;
#X connect 3 1 4 0;
#X connect 5 0 6 0;
#X connect 7 0 10 0;
#X connect 8 0 11 0;
#X connect 9 0 12 0;
#X connect 13 0 5 0;
#X connect 13 1 7 0;
#X connect 13 2 8 0;
#X connect 13 3 9 0;
#X connect 14 0 13 0;
#X connect 15 0 16 0;
#X connect 17 0 24 0;
#X connect 18 0 25 0;
#X connect 19 0 26 0;
#X connect 20 0 27 0;
#X connect 21 0 28 0;
#X connect 22 0 29 0;
#X connect 23 0 30 0;
#X connect 33 0 34 0;
#X connect 34 0 15 0;
#X connect 34 1 17 0;
#X connect 34 2 18 0;
#X connect 34 3 19 0;
#X connect 34 4 20 0;
#X connect 34 5 21 0;
#X connect 34 6 22 0;
#X connect 34 7 23 0;
#X restore 27 14 pd hidden;
#X floatatom 294 83 5 0 0 0 - - -;
#X obj 227 41 unpack f f;
#X obj 226 9 r \$1notes;
#N canvas 804 162 450 300 voice 0;
#X obj 55 108 *~;
#X obj 46 39 unpack;
#X obj 46 12 inlet;
#X obj 55 132 outlet~;
#N canvas 0 23 1137 576 additive 0;
#X obj 32 55 inlet;
#X obj 32 79 mtof;
#X floatatom 32 103 5 0 0 0 - - -;
#X obj 41 264 *~ 0.5;
#X obj 41 288 osc~;
#X obj 41 312 *~;
#X obj 253 145 line~;
#X obj 254 119 pack f 30;
#X obj 123 287 osc~;
#X obj 123 311 *~;
#X obj 335 144 line~;
#X obj 336 118 pack f 30;
#X obj 123 263 *~ 0.666667;
#X obj 212 287 osc~;
#X obj 212 311 *~;
#X obj 424 144 line~;
#X obj 425 118 pack f 30;
#X obj 294 286 osc~;
#X obj 294 310 *~;
#X obj 506 143 line~;
#X obj 507 117 pack f 30;
#X obj 385 287 osc~;
#X obj 385 311 *~;
#X obj 597 144 line~;
#X obj 598 118 pack f 30;
#X obj 467 286 osc~;
#X obj 467 310 *~;
#X obj 679 143 line~;
#X obj 680 117 pack f 30;
#X obj 556 286 osc~;
#X obj 556 310 *~;
#X obj 768 143 line~;
#X obj 769 117 pack f 30;
#X obj 638 285 osc~;
#X obj 638 309 *~;
#X obj 850 142 line~;
#X obj 851 116 pack f 30;
#X obj 726 285 osc~;
#X obj 726 309 *~;
#X obj 938 142 line~;
#X obj 939 116 pack f 30;
#X obj 212 263 *~ 1;
#X obj 294 262 *~ 2;
#X obj 385 263 *~ 3;
#X obj 467 262 *~ 4;
#X obj 556 262 *~ 5;
#X obj 638 261 *~ 6;
#X obj 726 261 *~ 8;
#X obj 346 389 +~;
#X obj 346 413 /~ 9;
#X obj 346 437 outlet~;
#X obj 254 95 r \$1h1;
#X obj 336 94 r \$1h2;
#X obj 425 94 r \$1h3;
#X obj 507 93 r \$1h4;
#X obj 598 94 r \$1h5;
#X obj 680 93 r \$1h6;
#X obj 769 93 r \$1h7;
#X obj 851 92 r \$1h8;
#X obj 939 92 r \$1h9;
#X connect 0 0 1 0;
#X connect 1 0 2 0;
#X connect 2 0 3 0;
#X connect 2 0 12 0;
#X connect 2 0 41 0;
#X connect 2 0 42 0;
#X connect 2 0 43 0;
#X connect 2 0 44 0;
#X connect 2 0 45 0;
#X connect 2 0 46 0;
#X connect 2 0 47 0;
#X connect 3 0 4 0;
#X connect 4 0 5 0;
#X connect 5 0 48 0;
#X connect 6 0 5 1;
#X connect 7 0 6 0;
#X connect 8 0 9 0;
#X connect 9 0 48 0;
#X connect 10 0 9 1;
#X connect 11 0 10 0;
#X connect 12 0 8 0;
#X connect 13 0 14 0;
#X connect 14 0 48 0;
#X connect 15 0 14 1;
#X connect 16 0 15 0;
#X connect 17 0 18 0;
#X connect 18 0 48 0;
#X connect 19 0 18 1;
#X connect 20 0 19 0;
#X connect 21 0 22 0;
#X connect 22 0 48 1;
#X connect 23 0 22 1;
#X connect 24 0 23 0;
#X connect 25 0 26 0;
#X connect 26 0 48 1;
#X connect 27 0 26 1;
#X connect 28 0 27 0;
#X connect 29 0 30 0;
#X connect 30 0 48 1;
#X connect 31 0 30 1;
#X connect 32 0 31 0;
#X connect 33 0 34 0;
#X connect 34 0 48 1;
#X connect 35 0 34 1;
#X connect 36 0 35 0;
#X connect 37 0 38 0;
#X connect 38 0 48 1;
#X connect 39 0 38 1;
#X connect 40 0 39 0;
#X connect 41 0 13 0;
#X connect 42 0 17 0;
#X connect 43 0 21 0;
#X connect 44 0 25 0;
#X connect 45 0 29 0;
#X connect 46 0 33 0;
#X connect 47 0 37 0;
#X connect 48 0 49 0;
#X connect 49 0 50 0;
#X connect 51 0 7 0;
#X connect 52 0 11 0;
#X connect 53 0 16 0;
#X connect 54 0 20 0;
#X connect 55 0 24 0;
#X connect 56 0 28 0;
#X connect 57 0 32 0;
#X connect 58 0 36 0;
#X connect 59 0 40 0;
#X restore 19 72 pd additive;
#N canvas 0 23 450 300 adsr~ 0;
#X floatatom 394 67 5 0 0 0 - - -;
#X obj 394 117 sel 0, f 16;
#X obj 239 156 bng 15 250 50 0 empty empty empty 17 7 0 10 -262144
-1 -1;
#X floatatom 546 148 5 0 0 0 - - -;
#X obj 394 90 / 127;
#X obj 417 417 line~;
#X floatatom 271 236 5 0 0 0 - - -;
#X obj 240 265 pack;
#X msg 238 234 0;
#X obj 628 210 bng 15 250 50 0 empty empty empty 17 7 0 10 -262144
-1 -1;
#X floatatom 661 309 5 0 0 0 - - -;
#X obj 630 338 pack;
#X msg 628 231 1;
#X obj 487 256 del;
#X floatatom 510 231 5 0 0 0 - - -;
#X obj 486 210 bng 15 250 50 0 empty empty empty 17 7 0 10 -262144
-1 -1;
#X floatatom 520 278 5 0 0 0 - - -;
#X obj 520 301 dbtorms;
#X obj 487 302 f;
#X obj 487 352 pack;
#X floatatom 530 351 5 0 0 0 - - -;
#X obj 417 441 *~;
#X obj 546 171 t b b f, f 24;
#X floatatom 711 419 5 0 0 0 - - -;
#X obj 239 176 t b b;
#X msg 288 177 stop;
#X obj 394 37 inlet;
#X obj 417 465 outlet~;
#X text 436 32 note on: 1-127;
#X text 436 45 note off: 0;
#X text 438 89 velocity devided by 127 to stay between 0 & 127;
#X text 247 416 ramp to avoid roughness;
#X text 197 138 release:;
#X text 444 190 decay:;
#X text 575 193 attack:;
#X text 389 17 input for adsr will only be velocity!;
#X text 377 134 note off;
#X text 469 134 note on;
#X text 314 257 delay until attack ends:;
#X text 24 13 S: value between 0~1 \, amplitude;
#X text 25 27 A \, D \, R: values of time (ms);
#X obj 271 212 r \$1R;
#X obj 510 207 r \$1A;
#X obj 520 254 r \$1S;
#X obj 661 285 r \$1A;
#X obj 530 327 r \$1D;
#X connect 0 0 4 0;
#X connect 1 0 2 0;
#X connect 1 1 3 0;
#X connect 2 0 24 0;
#X connect 3 0 22 0;
#X connect 4 0 1 0;
#X connect 5 0 21 0;
#X connect 6 0 7 1;
#X connect 7 0 5 0;
#X connect 8 0 7 0;
#X connect 9 0 12 0;
#X connect 10 0 11 1;
#X connect 11 0 5 0;
#X connect 12 0 11 0;
#X connect 13 0 18 0;
#X connect 14 0 13 1;
#X connect 15 0 13 0;
#X connect 16 0 17 0;
#X connect 17 0 18 1;
#X connect 18 0 19 0;
#X connect 19 0 5 0;
#X connect 20 0 19 1;
#X connect 21 0 27 0;
#X connect 22 0 15 0;
#X connect 22 1 9 0;
#X connect 22 2 23 0;
#X connect 23 0 21 1;
#X connect 24 0 8 0;
#X connect 24 1 25 0;
#X connect 25 0 13 0;
#X connect 26 0 0 0;
#X connect 41 0 6 0;
#X connect 42 0 14 0;
#X connect 43 0 16 0;
#X connect 44 0 10 0;
#X connect 45 0 20 0;
#X restore 104 72 pd adsr~;
#X connect 0 0 3 0;
#X connect 1 0 4 0;
#X connect 1 1 5 0;
#X connect 2 0 1 0;
#X connect 4 0 0 0;
#X connect 5 0 0 1;
#X restore 110 271 pd voice;
#N canvas 804 162 450 300 voice 0;
#X obj 55 108 *~;
#X obj 46 39 unpack;
#X obj 46 12 inlet;
#X obj 55 132 outlet~;
#N canvas 0 23 1137 576 additive 0;
#X obj 32 55 inlet;
#X obj 32 79 mtof;
#X floatatom 32 103 5 0 0 0 - - -;
#X obj 41 264 *~ 0.5;
#X obj 41 288 osc~;
#X obj 41 312 *~;
#X obj 253 145 line~;
#X obj 254 119 pack f 30;
#X obj 123 287 osc~;
#X obj 123 311 *~;
#X obj 335 144 line~;
#X obj 336 118 pack f 30;
#X obj 123 263 *~ 0.666667;
#X obj 212 287 osc~;
#X obj 212 311 *~;
#X obj 424 144 line~;
#X obj 425 118 pack f 30;
#X obj 294 286 osc~;
#X obj 294 310 *~;
#X obj 506 143 line~;
#X obj 507 117 pack f 30;
#X obj 385 287 osc~;
#X obj 385 311 *~;
#X obj 597 144 line~;
#X obj 598 118 pack f 30;
#X obj 467 286 osc~;
#X obj 467 310 *~;
#X obj 679 143 line~;
#X obj 680 117 pack f 30;
#X obj 556 286 osc~;
#X obj 556 310 *~;
#X obj 768 143 line~;
#X obj 769 117 pack f 30;
#X obj 638 285 osc~;
#X obj 638 309 *~;
#X obj 850 142 line~;
#X obj 851 116 pack f 30;
#X obj 726 285 osc~;
#X obj 726 309 *~;
#X obj 938 142 line~;
#X obj 939 116 pack f 30;
#X obj 212 263 *~ 1;
#X obj 294 262 *~ 2;
#X obj 385 263 *~ 3;
#X obj 467 262 *~ 4;
#X obj 556 262 *~ 5;
#X obj 638 261 *~ 6;
#X obj 726 261 *~ 8;
#X obj 346 389 +~;
#X obj 346 413 /~ 9;
#X obj 346 437 outlet~;
#X obj 254 95 r \$1h1;
#X obj 336 94 r \$1h2;
#X obj 425 94 r \$1h3;
#X obj 507 93 r \$1h4;
#X obj 598 94 r \$1h5;
#X obj 680 93 r \$1h6;
#X obj 769 93 r \$1h7;
#X obj 851 92 r \$1h8;
#X obj 939 92 r \$1h9;
#X connect 0 0 1 0;
#X connect 1 0 2 0;
#X connect 2 0 3 0;
#X connect 2 0 12 0;
#X connect 2 0 41 0;
#X connect 2 0 42 0;
#X connect 2 0 43 0;
#X connect 2 0 44 0;
#X connect 2 0 45 0;
#X connect 2 0 46 0;
#X connect 2 0 47 0;
#X connect 3 0 4 0;
#X connect 4 0 5 0;
#X connect 5 0 48 0;
#X connect 6 0 5 1;
#X connect 7 0 6 0;
#X connect 8 0 9 0;
#X connect 9 0 48 0;
#X connect 10 0 9 1;
#X connect 11 0 10 0;
#X connect 12 0 8 0;
#X connect 13 0 14 0;
#X connect 14 0 48 0;
#X connect 15 0 14 1;
#X connect 16 0 15 0;
#X connect 17 0 18 0;
#X connect 18 0 48 0;
#X connect 19 0 18 1;
#X connect 20 0 19 0;
#X connect 21 0 22 0;
#X connect 22 0 48 1;
#X connect 23 0 22 1;
#X connect 24 0 23 0;
#X connect 25 0 26 0;
#X connect 26 0 48 1;
#X connect 27 0 26 1;
#X connect 28 0 27 0;
#X connect 29 0 30 0;
#X connect 30 0 48 1;
#X connect 31 0 30 1;
#X connect 32 0 31 0;
#X connect 33 0 34 0;
#X connect 34 0 48 1;
#X connect 35 0 34 1;
#X connect 36 0 35 0;
#X connect 37 0 38 0;
#X connect 38 0 48 1;
#X connect 39 0 38 1;
#X connect 40 0 39 0;
#X connect 41 0 13 0;
#X connect 42 0 17 0;
#X connect 43 0 21 0;
#X connect 44 0 25 0;
#X connect 45 0 29 0;
#X connect 46 0 33 0;
#X connect 47 0 37 0;
#X connect 48 0 49 0;
#X connect 49 0 50 0;
#X connect 51 0 7 0;
#X connect 52 0 11 0;
#X connect 53 0 16 0;
#X connect 54 0 20 0;
#X connect 55 0 24 0;
#X connect 56 0 28 0;
#X connect 57 0 32 0;
#X connect 58 0 36 0;
#X connect 59 0 40 0;
#X restore 19 72 pd additive;
#N canvas 0 23 450 300 adsr~ 0;
#X floatatom 394 67 5 0 0 0 - - -;
#X obj 394 117 sel 0, f 16;
#X obj 239 156 bng 15 250 50 0 empty empty empty 17 7 0 10 -262144
-1 -1;
#X floatatom 546 148 5 0 0 0 - - -;
#X obj 394 90 / 127;
#X obj 417 417 line~;
#X floatatom 271 236 5 0 0 0 - - -;
#X obj 240 265 pack;
#X msg 238 234 0;
#X obj 628 210 bng 15 250 50 0 empty empty empty 17 7 0 10 -262144
-1 -1;
#X floatatom 661 309 5 0 0 0 - - -;
#X obj 630 338 pack;
#X msg 628 231 1;
#X obj 487 256 del;
#X floatatom 510 231 5 0 0 0 - - -;
#X obj 486 210 bng 15 250 50 0 empty empty empty 17 7 0 10 -262144
-1 -1;
#X floatatom 520 278 5 0 0 0 - - -;
#X obj 520 301 dbtorms;
#X obj 487 302 f;
#X obj 487 352 pack;
#X floatatom 530 351 5 0 0 0 - - -;
#X obj 417 441 *~;
#X obj 546 171 t b b f, f 24;
#X floatatom 711 419 5 0 0 0 - - -;
#X obj 239 176 t b b;
#X msg 288 177 stop;
#X obj 394 37 inlet;
#X obj 417 465 outlet~;
#X text 436 32 note on: 1-127;
#X text 436 45 note off: 0;
#X text 438 89 velocity devided by 127 to stay between 0 & 127;
#X text 247 416 ramp to avoid roughness;
#X text 197 138 release:;
#X text 444 190 decay:;
#X text 575 193 attack:;
#X text 389 17 input for adsr will only be velocity!;
#X text 377 134 note off;
#X text 469 134 note on;
#X text 314 257 delay until attack ends:;
#X text 24 13 S: value between 0~1 \, amplitude;
#X text 25 27 A \, D \, R: values of time (ms);
#X obj 271 212 r \$1R;
#X obj 510 207 r \$1A;
#X obj 520 254 r \$1S;
#X obj 661 285 r \$1A;
#X obj 530 327 r \$1D;
#X connect 0 0 4 0;
#X connect 1 0 2 0;
#X connect 1 1 3 0;
#X connect 2 0 24 0;
#X connect 3 0 22 0;
#X connect 4 0 1 0;
#X connect 5 0 21 0;
#X connect 6 0 7 1;
#X connect 7 0 5 0;
#X connect 8 0 7 0;
#X connect 9 0 12 0;
#X connect 10 0 11 1;
#X connect 11 0 5 0;
#X connect 12 0 11 0;
#X connect 13 0 18 0;
#X connect 14 0 13 1;
#X connect 15 0 13 0;
#X connect 16 0 17 0;
#X connect 17 0 18 1;
#X connect 18 0 19 0;
#X connect 19 0 5 0;
#X connect 20 0 19 1;
#X connect 21 0 27 0;
#X connect 22 0 15 0;
#X connect 22 1 9 0;
#X connect 22 2 23 0;
#X connect 23 0 21 1;
#X connect 24 0 8 0;
#X connect 24 1 25 0;
#X connect 25 0 13 0;
#X connect 26 0 0 0;
#X connect 41 0 6 0;
#X connect 42 0 14 0;
#X connect 43 0 16 0;
#X connect 44 0 10 0;
#X connect 45 0 20 0;
#X restore 104 72 pd adsr~;
#X connect 0 0 3 0;
#X connect 1 0 4 0;
#X connect 1 1 5 0;
#X connect 2 0 1 0;
#X connect 4 0 0 0;
#X connect 5 0 0 1;
#X restore 173 271 pd voice;
#N canvas 804 162 450 300 voice 0;
#X obj 55 108 *~;
#X obj 46 39 unpack;
#X obj 46 12 inlet;
#X obj 55 132 outlet~;
#N canvas 0 23 1137 576 additive 0;
#X obj 32 55 inlet;
#X obj 32 79 mtof;
#X floatatom 32 103 5 0 0 0 - - -;
#X obj 41 264 *~ 0.5;
#X obj 41 288 osc~;
#X obj 41 312 *~;
#X obj 253 145 line~;
#X obj 254 119 pack f 30;
#X obj 123 287 osc~;
#X obj 123 311 *~;
#X obj 335 144 line~;
#X obj 336 118 pack f 30;
#X obj 123 263 *~ 0.666667;
#X obj 212 287 osc~;
#X obj 212 311 *~;
#X obj 424 144 line~;
#X obj 425 118 pack f 30;
#X obj 294 286 osc~;
#X obj 294 310 *~;
#X obj 506 143 line~;
#X obj 507 117 pack f 30;
#X obj 385 287 osc~;
#X obj 385 311 *~;
#X obj 597 144 line~;
#X obj 598 118 pack f 30;
#X obj 467 286 osc~;
#X obj 467 310 *~;
#X obj 679 143 line~;
#X obj 680 117 pack f 30;
#X obj 556 286 osc~;
#X obj 556 310 *~;
#X obj 768 143 line~;
#X obj 769 117 pack f 30;
#X obj 638 285 osc~;
#X obj 638 309 *~;
#X obj 850 142 line~;
#X obj 851 116 pack f 30;
#X obj 726 285 osc~;
#X obj 726 309 *~;
#X obj 938 142 line~;
#X obj 939 116 pack f 30;
#X obj 212 263 *~ 1;
#X obj 294 262 *~ 2;
#X obj 385 263 *~ 3;
#X obj 467 262 *~ 4;
#X obj 556 262 *~ 5;
#X obj 638 261 *~ 6;
#X obj 726 261 *~ 8;
#X obj 346 389 +~;
#X obj 346 413 /~ 9;
#X obj 346 437 outlet~;
#X obj 254 95 r \$1h1;
#X obj 336 94 r \$1h2;
#X obj 425 94 r \$1h3;
#X obj 507 93 r \$1h4;
#X obj 598 94 r \$1h5;
#X obj 680 93 r \$1h6;
#X obj 769 93 r \$1h7;
#X obj 851 92 r \$1h8;
#X obj 939 92 r \$1h9;
#X connect 0 0 1 0;
#X connect 1 0 2 0;
#X connect 2 0 3 0;
#X connect 2 0 12 0;
#X connect 2 0 41 0;
#X connect 2 0 42 0;
#X connect 2 0 43 0;
#X connect 2 0 44 0;
#X connect 2 0 45 0;
#X connect 2 0 46 0;
#X connect 2 0 47 0;
#X connect 3 0 4 0;
#X connect 4 0 5 0;
#X connect 5 0 48 0;
#X connect 6 0 5 1;
#X connect 7 0 6 0;
#X connect 8 0 9 0;
#X connect 9 0 48 0;
#X connect 10 0 9 1;
#X connect 11 0 10 0;
#X connect 12 0 8 0;
#X connect 13 0 14 0;
#X connect 14 0 48 0;
#X connect 15 0 14 1;
#X connect 16 0 15 0;
#X connect 17 0 18 0;
#X connect 18 0 48 0;
#X connect 19 0 18 1;
#X connect 20 0 19 0;
#X connect 21 0 22 0;
#X connect 22 0 48 1;
#X connect 23 0 22 1;
#X connect 24 0 23 0;
#X connect 25 0 26 0;
#X connect 26 0 48 1;
#X connect 27 0 26 1;
#X connect 28 0 27 0;
#X connect 29 0 30 0;
#X connect 30 0 48 1;
#X connect 31 0 30 1;
#X connect 32 0 31 0;
#X connect 33 0 34 0;
#X connect 34 0 48 1;
#X connect 35 0 34 1;
#X connect 36 0 35 0;
#X connect 37 0 38 0;
#X connect 38 0 48 1;
#X connect 39 0 38 1;
#X connect 40 0 39 0;
#X connect 41 0 13 0;
#X connect 42 0 17 0;
#X connect 43 0 21 0;
#X connect 44 0 25 0;
#X connect 45 0 29 0;
#X connect 46 0 33 0;
#X connect 47 0 37 0;
#X connect 48 0 49 0;
#X connect 49 0 50 0;
#X connect 51 0 7 0;
#X connect 52 0 11 0;
#X connect 53 0 16 0;
#X connect 54 0 20 0;
#X connect 55 0 24 0;
#X connect 56 0 28 0;
#X connect 57 0 32 0;
#X connect 58 0 36 0;
#X connect 59 0 40 0;
#X restore 19 72 pd additive;
#N canvas 0 23 450 300 adsr~ 0;
#X floatatom 394 67 5 0 0 0 - - -;
#X obj 394 117 sel 0, f 16;
#X obj 239 156 bng 15 250 50 0 empty empty empty 17 7 0 10 -262144
-1 -1;
#X floatatom 546 148 5 0 0 0 - - -;
#X obj 394 90 / 127;
#X obj 417 417 line~;
#X floatatom 271 236 5 0 0 0 - - -;
#X obj 240 265 pack;
#X msg 238 234 0;
#X obj 628 210 bng 15 250 50 0 empty empty empty 17 7 0 10 -262144
-1 -1;
#X floatatom 661 309 5 0 0 0 - - -;
#X obj 630 338 pack;
#X msg 628 231 1;
#X obj 487 256 del;
#X floatatom 510 231 5 0 0 0 - - -;
#X obj 486 210 bng 15 250 50 0 empty empty empty 17 7 0 10 -262144
-1 -1;
#X floatatom 520 278 5 0 0 0 - - -;
#X obj 520 301 dbtorms;
#X obj 487 302 f;
#X obj 487 352 pack;
#X floatatom 530 351 5 0 0 0 - - -;
#X obj 417 441 *~;
#X obj 546 171 t b b f, f 24;
#X floatatom 711 419 5 0 0 0 - - -;
#X obj 239 176 t b b;
#X msg 288 177 stop;
#X obj 394 37 inlet;
#X obj 417 465 outlet~;
#X text 436 32 note on: 1-127;
#X text 436 45 note off: 0;
#X text 438 89 velocity devided by 127 to stay between 0 & 127;
#X text 247 416 ramp to avoid roughness;
#X text 197 138 release:;
#X text 444 190 decay:;
#X text 575 193 attack:;
#X text 389 17 input for adsr will only be velocity!;
#X text 377 134 note off;
#X text 469 134 note on;
#X text 314 257 delay until attack ends:;
#X text 24 13 S: value between 0~1 \, amplitude;
#X text 25 27 A \, D \, R: values of time (ms);
#X obj 271 212 r \$1R;
#X obj 510 207 r \$1A;
#X obj 520 254 r \$1S;
#X obj 661 285 r \$1A;
#X obj 530 327 r \$1D;
#X connect 0 0 4 0;
#X connect 1 0 2 0;
#X connect 1 1 3 0;
#X connect 2 0 24 0;
#X connect 3 0 22 0;
#X connect 4 0 1 0;
#X connect 5 0 21 0;
#X connect 6 0 7 1;
#X connect 7 0 5 0;
#X connect 8 0 7 0;
#X connect 9 0 12 0;
#X connect 10 0 11 1;
#X connect 11 0 5 0;
#X connect 12 0 11 0;
#X connect 13 0 18 0;
#X connect 14 0 13 1;
#X connect 15 0 13 0;
#X connect 16 0 17 0;
#X connect 17 0 18 1;
#X connect 18 0 19 0;
#X connect 19 0 5 0;
#X connect 20 0 19 1;
#X connect 21 0 27 0;
#X connect 22 0 15 0;
#X connect 22 1 9 0;
#X connect 22 2 23 0;
#X connect 23 0 21 1;
#X connect 24 0 8 0;
#X connect 24 1 25 0;
#X connect 25 0 13 0;
#X connect 26 0 0 0;
#X connect 41 0 6 0;
#X connect 42 0 14 0;
#X connect 43 0 16 0;
#X connect 44 0 10 0;
#X connect 45 0 20 0;
#X restore 104 72 pd adsr~;
#X connect 0 0 3 0;
#X connect 1 0 4 0;
#X connect 1 1 5 0;
#X connect 2 0 1 0;
#X connect 4 0 0 0;
#X connect 5 0 0 1;
#X restore 236 271 pd voice;
#N canvas 804 162 450 300 voice 0;
#X obj 55 108 *~;
#X obj 46 39 unpack;
#X obj 46 12 inlet;
#X obj 55 132 outlet~;
#N canvas 0 23 1137 576 additive 0;
#X obj 32 55 inlet;
#X obj 32 79 mtof;
#X floatatom 32 103 5 0 0 0 - - -;
#X obj 41 264 *~ 0.5;
#X obj 41 288 osc~;
#X obj 41 312 *~;
#X obj 253 145 line~;
#X obj 254 119 pack f 30;
#X obj 123 287 osc~;
#X obj 123 311 *~;
#X obj 335 144 line~;
#X obj 336 118 pack f 30;
#X obj 123 263 *~ 0.666667;
#X obj 212 287 osc~;
#X obj 212 311 *~;
#X obj 424 144 line~;
#X obj 425 118 pack f 30;
#X obj 294 286 osc~;
#X obj 294 310 *~;
#X obj 506 143 line~;
#X obj 507 117 pack f 30;
#X obj 385 287 osc~;
#X obj 385 311 *~;
#X obj 597 144 line~;
#X obj 598 118 pack f 30;
#X obj 467 286 osc~;
#X obj 467 310 *~;
#X obj 679 143 line~;
#X obj 680 117 pack f 30;
#X obj 556 286 osc~;
#X obj 556 310 *~;
#X obj 768 143 line~;
#X obj 769 117 pack f 30;
#X obj 638 285 osc~;
#X obj 638 309 *~;
#X obj 850 142 line~;
#X obj 851 116 pack f 30;
#X obj 726 285 osc~;
#X obj 726 309 *~;
#X obj 938 142 line~;
#X obj 939 116 pack f 30;
#X obj 212 263 *~ 1;
#X obj 294 262 *~ 2;
#X obj 385 263 *~ 3;
#X obj 467 262 *~ 4;
#X obj 556 262 *~ 5;
#X obj 638 261 *~ 6;
#X obj 726 261 *~ 8;
#X obj 346 389 +~;
#X obj 346 413 /~ 9;
#X obj 346 437 outlet~;
#X obj 254 95 r \$1h1;
#X obj 336 94 r \$1h2;
#X obj 425 94 r \$1h3;
#X obj 507 93 r \$1h4;
#X obj 598 94 r \$1h5;
#X obj 680 93 r \$1h6;
#X obj 769 93 r \$1h7;
#X obj 851 92 r \$1h8;
#X obj 939 92 r \$1h9;
#X connect 0 0 1 0;
#X connect 1 0 2 0;
#X connect 2 0 3 0;
#X connect 2 0 12 0;
#X connect 2 0 41 0;
#X connect 2 0 42 0;
#X connect 2 0 43 0;
#X connect 2 0 44 0;
#X connect 2 0 45 0;
#X connect 2 0 46 0;
#X connect 2 0 47 0;
#X connect 3 0 4 0;
#X connect 4 0 5 0;
#X connect 5 0 48 0;
#X connect 6 0 5 1;
#X connect 7 0 6 0;
#X connect 8 0 9 0;
#X connect 9 0 48 0;
#X connect 10 0 9 1;
#X connect 11 0 10 0;
#X connect 12 0 8 0;
#X connect 13 0 14 0;
#X connect 14 0 48 0;
#X connect 15 0 14 1;
#X connect 16 0 15 0;
#X connect 17 0 18 0;
#X connect 18 0 48 0;
#X connect 19 0 18 1;
#X connect 20 0 19 0;
#X connect 21 0 22 0;
#X connect 22 0 48 1;
#X connect 23 0 22 1;
#X connect 24 0 23 0;
#X connect 25 0 26 0;
#X connect 26 0 48 1;
#X connect 27 0 26 1;
#X connect 28 0 27 0;
#X connect 29 0 30 0;
#X connect 30 0 48 1;
#X connect 31 0 30 1;
#X connect 32 0 31 0;
#X connect 33 0 34 0;
#X connect 34 0 48 1;
#X connect 35 0 34 1;
#X connect 36 0 35 0;
#X connect 37 0 38 0;
#X connect 38 0 48 1;
#X connect 39 0 38 1;
#X connect 40 0 39 0;
#X connect 41 0 13 0;
#X connect 42 0 17 0;
#X connect 43 0 21 0;
#X connect 44 0 25 0;
#X connect 45 0 29 0;
#X connect 46 0 33 0;
#X connect 47 0 37 0;
#X connect 48 0 49 0;
#X connect 49 0 50 0;
#X connect 51 0 7 0;
#X connect 52 0 11 0;
#X connect 53 0 16 0;
#X connect 54 0 20 0;
#X connect 55 0 24 0;
#X connect 56 0 28 0;
#X connect 57 0 32 0;
#X connect 58 0 36 0;
#X connect 59 0 40 0;
#X restore 19 72 pd additive;
#N canvas 0 23 450 300 adsr~ 0;
#X floatatom 394 67 5 0 0 0 - - -;
#X obj 394 117 sel 0, f 16;
#X obj 239 156 bng 15 250 50 0 empty empty empty 17 7 0 10 -262144
-1 -1;
#X floatatom 546 148 5 0 0 0 - - -;
#X obj 394 90 / 127;
#X obj 417 417 line~;
#X floatatom 271 236 5 0 0 0 - - -;
#X obj 240 265 pack;
#X msg 238 234 0;
#X obj 628 210 bng 15 250 50 0 empty empty empty 17 7 0 10 -262144
-1 -1;
#X floatatom 661 309 5 0 0 0 - - -;
#X obj 630 338 pack;
#X msg 628 231 1;
#X obj 487 256 del;
#X floatatom 510 231 5 0 0 0 - - -;
#X obj 486 210 bng 15 250 50 0 empty empty empty 17 7 0 10 -262144
-1 -1;
#X floatatom 520 278 5 0 0 0 - - -;
#X obj 520 301 dbtorms;
#X obj 487 302 f;
#X obj 487 352 pack;
#X floatatom 530 351 5 0 0 0 - - -;
#X obj 417 441 *~;
#X obj 546 171 t b b f, f 24;
#X floatatom 711 419 5 0 0 0 - - -;
#X obj 239 176 t b b;
#X msg 288 177 stop;
#X obj 394 37 inlet;
#X obj 417 465 outlet~;
#X text 436 32 note on: 1-127;
#X text 436 45 note off: 0;
#X text 438 89 velocity devided by 127 to stay between 0 & 127;
#X text 247 416 ramp to avoid roughness;
#X text 197 138 release:;
#X text 444 190 decay:;
#X text 575 193 attack:;
#X text 389 17 input for adsr will only be velocity!;
#X text 377 134 note off;
#X text 469 134 note on;
#X text 314 257 delay until attack ends:;
#X text 24 13 S: value between 0~1 \, amplitude;
#X text 25 27 A \, D \, R: values of time (ms);
#X obj 271 212 r \$1R;
#X obj 510 207 r \$1A;
#X obj 520 254 r \$1S;
#X obj 661 285 r \$1A;
#X obj 530 327 r \$1D;
#X connect 0 0 4 0;
#X connect 1 0 2 0;
#X connect 1 1 3 0;
#X connect 2 0 24 0;
#X connect 3 0 22 0;
#X connect 4 0 1 0;
#X connect 5 0 21 0;
#X connect 6 0 7 1;
#X connect 7 0 5 0;
#X connect 8 0 7 0;
#X connect 9 0 12 0;
#X connect 10 0 11 1;
#X connect 11 0 5 0;
#X connect 12 0 11 0;
#X connect 13 0 18 0;
#X connect 14 0 13 1;
#X connect 15 0 13 0;
#X connect 16 0 17 0;
#X connect 17 0 18 1;
#X connect 18 0 19 0;
#X connect 19 0 5 0;
#X connect 20 0 19 1;
#X connect 21 0 27 0;
#X connect 22 0 15 0;
#X connect 22 1 9 0;
#X connect 22 2 23 0;
#X connect 23 0 21 1;
#X connect 24 0 8 0;
#X connect 24 1 25 0;
#X connect 25 0 13 0;
#X connect 26 0 0 0;
#X connect 41 0 6 0;
#X connect 42 0 14 0;
#X connect 43 0 16 0;
#X connect 44 0 10 0;
#X connect 45 0 20 0;
#X restore 104 72 pd adsr~;
#X connect 0 0 3 0;
#X connect 1 0 4 0;
#X connect 1 1 5 0;
#X connect 2 0 1 0;
#X connect 4 0 0 0;
#X connect 5 0 0 1;
#X restore 299 271 pd voice;
#N canvas 804 162 450 300 voice 0;
#X obj 55 108 *~;
#X obj 46 39 unpack;
#X obj 46 12 inlet;
#X obj 55 132 outlet~;
#N canvas 0 23 1137 576 additive 0;
#X obj 32 55 inlet;
#X obj 32 79 mtof;
#X floatatom 32 103 5 0 0 0 - - -;
#X obj 41 264 *~ 0.5;
#X obj 41 288 osc~;
#X obj 41 312 *~;
#X obj 253 145 line~;
#X obj 254 119 pack f 30;
#X obj 123 287 osc~;
#X obj 123 311 *~;
#X obj 335 144 line~;
#X obj 336 118 pack f 30;
#X obj 123 263 *~ 0.666667;
#X obj 212 287 osc~;
#X obj 212 311 *~;
#X obj 424 144 line~;
#X obj 425 118 pack f 30;
#X obj 294 286 osc~;
#X obj 294 310 *~;
#X obj 506 143 line~;
#X obj 507 117 pack f 30;
#X obj 385 287 osc~;
#X obj 385 311 *~;
#X obj 597 144 line~;
#X obj 598 118 pack f 30;
#X obj 467 286 osc~;
#X obj 467 310 *~;
#X obj 679 143 line~;
#X obj 680 117 pack f 30;
#X obj 556 286 osc~;
#X obj 556 310 *~;
#X obj 768 143 line~;
#X obj 769 117 pack f 30;
#X obj 638 285 osc~;
#X obj 638 309 *~;
#X obj 850 142 line~;
#X obj 851 116 pack f 30;
#X obj 726 285 osc~;
#X obj 726 309 *~;
#X obj 938 142 line~;
#X obj 939 116 pack f 30;
#X obj 212 263 *~ 1;
#X obj 294 262 *~ 2;
#X obj 385 263 *~ 3;
#X obj 467 262 *~ 4;
#X obj 556 262 *~ 5;
#X obj 638 261 *~ 6;
#X obj 726 261 *~ 8;
#X obj 346 389 +~;
#X obj 346 413 /~ 9;
#X obj 346 437 outlet~;
#X obj 254 95 r \$1h1;
#X obj 336 94 r \$1h2;
#X obj 425 94 r \$1h3;
#X obj 507 93 r \$1h4;
#X obj 598 94 r \$1h5;
#X obj 680 93 r \$1h6;
#X obj 769 93 r \$1h7;
#X obj 851 92 r \$1h8;
#X obj 939 92 r \$1h9;
#X connect 0 0 1 0;
#X connect 1 0 2 0;
#X connect 2 0 3 0;
#X connect 2 0 12 0;
#X connect 2 0 41 0;
#X connect 2 0 42 0;
#X connect 2 0 43 0;
#X connect 2 0 44 0;
#X connect 2 0 45 0;
#X connect 2 0 46 0;
#X connect 2 0 47 0;
#X connect 3 0 4 0;
#X connect 4 0 5 0;
#X connect 5 0 48 0;
#X connect 6 0 5 1;
#X connect 7 0 6 0;
#X connect 8 0 9 0;
#X connect 9 0 48 0;
#X connect 10 0 9 1;
#X connect 11 0 10 0;
#X connect 12 0 8 0;
#X connect 13 0 14 0;
#X connect 14 0 48 0;
#X connect 15 0 14 1;
#X connect 16 0 15 0;
#X connect 17 0 18 0;
#X connect 18 0 48 0;
#X connect 19 0 18 1;
#X connect 20 0 19 0;
#X connect 21 0 22 0;
#X connect 22 0 48 1;
#X connect 23 0 22 1;
#X connect 24 0 23 0;
#X connect 25 0 26 0;
#X connect 26 0 48 1;
#X connect 27 0 26 1;
#X connect 28 0 27 0;
#X connect 29 0 30 0;
#X connect 30 0 48 1;
#X connect 31 0 30 1;
#X connect 32 0 31 0;
#X connect 33 0 34 0;
#X connect 34 0 48 1;
#X connect 35 0 34 1;
#X connect 36 0 35 0;
#X connect 37 0 38 0;
#X connect 38 0 48 1;
#X connect 39 0 38 1;
#X connect 40 0 39 0;
#X connect 41 0 13 0;
#X connect 42 0 17 0;
#X connect 43 0 21 0;
#X connect 44 0 25 0;
#X connect 45 0 29 0;
#X connect 46 0 33 0;
#X connect 47 0 37 0;
#X connect 48 0 49 0;
#X connect 49 0 50 0;
#X connect 51 0 7 0;
#X connect 52 0 11 0;
#X connect 53 0 16 0;
#X connect 54 0 20 0;
#X connect 55 0 24 0;
#X connect 56 0 28 0;
#X connect 57 0 32 0;
#X connect 58 0 36 0;
#X connect 59 0 40 0;
#X restore 19 72 pd additive;
#N canvas 0 23 450 300 adsr~ 0;
#X floatatom 394 67 5 0 0 0 - - -;
#X obj 394 117 sel 0, f 16;
#X obj 239 156 bng 15 250 50 0 empty empty empty 17 7 0 10 -262144
-1 -1;
#X floatatom 546 148 5 0 0 0 - - -;
#X obj 394 90 / 127;
#X obj 417 417 line~;
#X floatatom 271 236 5 0 0 0 - - -;
#X obj 240 265 pack;
#X msg 238 234 0;
#X obj 628 210 bng 15 250 50 0 empty empty empty 17 7 0 10 -262144
-1 -1;
#X floatatom 661 309 5 0 0 0 - - -;
#X obj 630 338 pack;
#X msg 628 231 1;
#X obj 487 256 del;
#X floatatom 510 231 5 0 0 0 - - -;
#X obj 486 210 bng 15 250 50 0 empty empty empty 17 7 0 10 -262144
-1 -1;
#X floatatom 520 278 5 0 0 0 - - -;
#X obj 520 301 dbtorms;
#X obj 487 302 f;
#X obj 487 352 pack;
#X floatatom 530 351 5 0 0 0 - - -;
#X obj 417 441 *~;
#X obj 546 171 t b b f, f 24;
#X floatatom 711 419 5 0 0 0 - - -;
#X obj 239 176 t b b;
#X msg 288 177 stop;
#X obj 394 37 inlet;
#X obj 417 465 outlet~;
#X text 436 32 note on: 1-127;
#X text 436 45 note off: 0;
#X text 438 89 velocity devided by 127 to stay between 0 & 127;
#X text 247 416 ramp to avoid roughness;
#X text 197 138 release:;
#X text 444 190 decay:;
#X text 575 193 attack:;
#X text 389 17 input for adsr will only be velocity!;
#X text 377 134 note off;
#X text 469 134 note on;
#X text 314 257 delay until attack ends:;
#X text 24 13 S: value between 0~1 \, amplitude;
#X text 25 27 A \, D \, R: values of time (ms);
#X obj 271 212 r \$1R;
#X obj 510 207 r \$1A;
#X obj 520 254 r \$1S;
#X obj 661 285 r \$1A;
#X obj 530 327 r \$1D;
#X connect 0 0 4 0;
#X connect 1 0 2 0;
#X connect 1 1 3 0;
#X connect 2 0 24 0;
#X connect 3 0 22 0;
#X connect 4 0 1 0;
#X connect 5 0 21 0;
#X connect 6 0 7 1;
#X connect 7 0 5 0;
#X connect 8 0 7 0;
#X connect 9 0 12 0;
#X connect 10 0 11 1;
#X connect 11 0 5 0;
#X connect 12 0 11 0;
#X connect 13 0 18 0;
#X connect 14 0 13 1;
#X connect 15 0 13 0;
#X connect 16 0 17 0;
#X connect 17 0 18 1;
#X connect 18 0 19 0;
#X connect 19 0 5 0;
#X connect 20 0 19 1;
#X connect 21 0 27 0;
#X connect 22 0 15 0;
#X connect 22 1 9 0;
#X connect 22 2 23 0;
#X connect 23 0 21 1;
#X connect 24 0 8 0;
#X connect 24 1 25 0;
#X connect 25 0 13 0;
#X connect 26 0 0 0;
#X connect 41 0 6 0;
#X connect 42 0 14 0;
#X connect 43 0 16 0;
#X connect 44 0 10 0;
#X connect 45 0 20 0;
#X restore 104 72 pd adsr~;
#X connect 0 0 3 0;
#X connect 1 0 4 0;
#X connect 1 1 5 0;
#X connect 2 0 1 0;
#X connect 4 0 0 0;
#X connect 5 0 0 1;
#X restore 362 271 pd voice;
#N canvas 804 162 450 300 voice 0;
#X obj 55 108 *~;
#X obj 46 39 unpack;
#X obj 46 12 inlet;
#X obj 55 132 outlet~;
#N canvas 0 23 1137 576 additive 0;
#X obj 32 55 inlet;
#X obj 32 79 mtof;
#X floatatom 32 103 5 0 0 0 - - -;
#X obj 41 264 *~ 0.5;
#X obj 41 288 osc~;
#X obj 41 312 *~;
#X obj 253 145 line~;
#X obj 254 119 pack f 30;
#X obj 123 287 osc~;
#X obj 123 311 *~;
#X obj 335 144 line~;
#X obj 336 118 pack f 30;
#X obj 123 263 *~ 0.666667;
#X obj 212 287 osc~;
#X obj 212 311 *~;
#X obj 424 144 line~;
#X obj 425 118 pack f 30;
#X obj 294 286 osc~;
#X obj 294 310 *~;
#X obj 506 143 line~;
#X obj 507 117 pack f 30;
#X obj 385 287 osc~;
#X obj 385 311 *~;
#X obj 597 144 line~;
#X obj 598 118 pack f 30;
#X obj 467 286 osc~;
#X obj 467 310 *~;
#X obj 679 143 line~;
#X obj 680 117 pack f 30;
#X obj 556 286 osc~;
#X obj 556 310 *~;
#X obj 768 143 line~;
#X obj 769 117 pack f 30;
#X obj 638 285 osc~;
#X obj 638 309 *~;
#X obj 850 142 line~;
#X obj 851 116 pack f 30;
#X obj 726 285 osc~;
#X obj 726 309 *~;
#X obj 938 142 line~;
#X obj 939 116 pack f 30;
#X obj 212 263 *~ 1;
#X obj 294 262 *~ 2;
#X obj 385 263 *~ 3;
#X obj 467 262 *~ 4;
#X obj 556 262 *~ 5;
#X obj 638 261 *~ 6;
#X obj 726 261 *~ 8;
#X obj 346 389 +~;
#X obj 346 413 /~ 9;
#X obj 346 437 outlet~;
#X obj 254 95 r \$1h1;
#X obj 336 94 r \$1h2;
#X obj 425 94 r \$1h3;
#X obj 507 93 r \$1h4;
#X obj 598 94 r \$1h5;
#X obj 680 93 r \$1h6;
#X obj 769 93 r \$1h7;
#X obj 851 92 r \$1h8;
#X obj 939 92 r \$1h9;
#X connect 0 0 1 0;
#X connect 1 0 2 0;
#X connect 2 0 3 0;
#X connect 2 0 12 0;
#X connect 2 0 41 0;
#X connect 2 0 42 0;
#X connect 2 0 43 0;
#X connect 2 0 44 0;
#X connect 2 0 45 0;
#X connect 2 0 46 0;
#X connect 2 0 47 0;
#X connect 3 0 4 0;
#X connect 4 0 5 0;
#X connect 5 0 48 0;
#X connect 6 0 5 1;
#X connect 7 0 6 0;
#X connect 8 0 9 0;
#X connect 9 0 48 0;
#X connect 10 0 9 1;
#X connect 11 0 10 0;
#X connect 12 0 8 0;
#X connect 13 0 14 0;
#X connect 14 0 48 0;
#X connect 15 0 14 1;
#X connect 16 0 15 0;
#X connect 17 0 18 0;
#X connect 18 0 48 0;
#X connect 19 0 18 1;
#X connect 20 0 19 0;
#X connect 21 0 22 0;
#X connect 22 0 48 1;
#X connect 23 0 22 1;
#X connect 24 0 23 0;
#X connect 25 0 26 0;
#X connect 26 0 48 1;
#X connect 27 0 26 1;
#X connect 28 0 27 0;
#X connect 29 0 30 0;
#X connect 30 0 48 1;
#X connect 31 0 30 1;
#X connect 32 0 31 0;
#X connect 33 0 34 0;
#X connect 34 0 48 1;
#X connect 35 0 34 1;
#X connect 36 0 35 0;
#X connect 37 0 38 0;
#X connect 38 0 48 1;
#X connect 39 0 38 1;
#X connect 40 0 39 0;
#X connect 41 0 13 0;
#X connect 42 0 17 0;
#X connect 43 0 21 0;
#X connect 44 0 25 0;
#X connect 45 0 29 0;
#X connect 46 0 33 0;
#X connect 47 0 37 0;
#X connect 48 0 49 0;
#X connect 49 0 50 0;
#X connect 51 0 7 0;
#X connect 52 0 11 0;
#X connect 53 0 16 0;
#X connect 54 0 20 0;
#X connect 55 0 24 0;
#X connect 56 0 28 0;
#X connect 57 0 32 0;
#X connect 58 0 36 0;
#X connect 59 0 40 0;
#X restore 19 72 pd additive;
#N canvas 0 23 895 472 adsr~ 0;
#X floatatom 394 67 5 0 0 0 - - -;
#X obj 394 117 sel 0, f 16;
#X obj 239 156 bng 15 250 50 0 empty empty empty 17 7 0 10 -262144
-1 -1;
#X floatatom 546 148 5 0 0 0 - - -;
#X obj 394 90 / 127;
#X obj 417 417 line~;
#X floatatom 271 236 5 0 0 0 - - -;
#X obj 240 265 pack;
#X msg 238 234 0;
#X obj 628 210 bng 15 250 50 0 empty empty empty 17 7 0 10 -262144
-1 -1;
#X floatatom 661 309 5 0 0 0 - - -;
#X obj 630 338 pack;
#X msg 628 231 1;
#X obj 487 256 del;
#X floatatom 510 231 5 0 0 0 - - -;
#X obj 486 210 bng 15 250 50 0 empty empty empty 17 7 0 10 -262144
-1 -1;
#X floatatom 520 278 5 0 0 0 - - -;
#X obj 520 301 dbtorms;
#X obj 487 302 f;
#X obj 487 352 pack;
#X floatatom 530 351 5 0 0 0 - - -;
#X obj 417 441 *~;
#X obj 546 171 t b b f, f 24;
#X floatatom 711 419 5 0 0 0 - - -;
#X obj 239 176 t b b;
#X msg 288 177 stop;
#X obj 394 37 inlet;
#X obj 417 465 outlet~;
#X text 436 32 note on: 1-127;
#X text 436 45 note off: 0;
#X text 438 89 velocity devided by 127 to stay between 0 & 127;
#X text 247 416 ramp to avoid roughness;
#X text 197 138 release:;
#X text 444 190 decay:;
#X text 575 193 attack:;
#X text 389 17 input for adsr will only be velocity!;
#X text 377 134 note off;
#X text 469 134 note on;
#X text 314 257 delay until attack ends:;
#X text 24 13 S: value between 0~1 \, amplitude;
#X text 25 27 A \, D \, R: values of time (ms);
#X obj 271 212 r \$1R;
#X obj 510 207 r \$1A;
#X obj 520 254 r \$1S;
#X obj 661 285 r \$1A;
#X obj 530 327 r \$1D;
#X connect 0 0 4 0;
#X connect 1 0 2 0;
#X connect 1 1 3 0;
#X connect 2 0 24 0;
#X connect 3 0 22 0;
#X connect 4 0 1 0;
#X connect 5 0 21 0;
#X connect 6 0 7 1;
#X connect 7 0 5 0;
#X connect 8 0 7 0;
#X connect 9 0 12 0;
#X connect 10 0 11 1;
#X connect 11 0 5 0;
#X connect 12 0 11 0;
#X connect 13 0 18 0;
#X connect 14 0 13 1;
#X connect 15 0 13 0;
#X connect 16 0 17 0;
#X connect 17 0 18 1;
#X connect 18 0 19 0;
#X connect 19 0 5 0;
#X connect 20 0 19 1;
#X connect 21 0 27 0;
#X connect 22 0 15 0;
#X connect 22 1 9 0;
#X connect 22 2 23 0;
#X connect 23 0 21 1;
#X connect 24 0 8 0;
#X connect 24 1 25 0;
#X connect 25 0 13 0;
#X connect 26 0 0 0;
#X connect 41 0 6 0;
#X connect 42 0 14 0;
#X connect 43 0 16 0;
#X connect 44 0 10 0;
#X connect 45 0 20 0;
#X restore 104 72 pd adsr~;
#X connect 0 0 3 0;
#X connect 1 0 4 0;
#X connect 1 1 5 0;
#X connect 2 0 1 0;
#X connect 4 0 0 0;
#X connect 5 0 0 1;
#X restore 425 271 pd voice;
#N canvas 804 162 450 300 voice 0;
#X obj 55 108 *~;
#X obj 46 39 unpack;
#X obj 46 12 inlet;
#X obj 55 132 outlet~;
#N canvas 0 23 1137 576 additive 0;
#X obj 32 55 inlet;
#X obj 32 79 mtof;
#X floatatom 32 103 5 0 0 0 - - -;
#X obj 41 264 *~ 0.5;
#X obj 41 288 osc~;
#X obj 41 312 *~;
#X obj 253 145 line~;
#X obj 254 119 pack f 30;
#X obj 123 287 osc~;
#X obj 123 311 *~;
#X obj 335 144 line~;
#X obj 336 118 pack f 30;
#X obj 123 263 *~ 0.666667;
#X obj 212 287 osc~;
#X obj 212 311 *~;
#X obj 424 144 line~;
#X obj 425 118 pack f 30;
#X obj 294 286 osc~;
#X obj 294 310 *~;
#X obj 506 143 line~;
#X obj 507 117 pack f 30;
#X obj 385 287 osc~;
#X obj 385 311 *~;
#X obj 597 144 line~;
#X obj 598 118 pack f 30;
#X obj 467 286 osc~;
#X obj 467 310 *~;
#X obj 679 143 line~;
#X obj 680 117 pack f 30;
#X obj 556 286 osc~;
#X obj 556 310 *~;
#X obj 768 143 line~;
#X obj 769 117 pack f 30;
#X obj 638 285 osc~;
#X obj 638 309 *~;
#X obj 850 142 line~;
#X obj 851 116 pack f 30;
#X obj 726 285 osc~;
#X obj 726 309 *~;
#X obj 938 142 line~;
#X obj 939 116 pack f 30;
#X obj 212 263 *~ 1;
#X obj 294 262 *~ 2;
#X obj 385 263 *~ 3;
#X obj 467 262 *~ 4;
#X obj 556 262 *~ 5;
#X obj 638 261 *~ 6;
#X obj 726 261 *~ 8;
#X obj 346 389 +~;
#X obj 346 413 /~ 9;
#X obj 346 437 outlet~;
#X obj 254 95 r \$1h1;
#X obj 336 94 r \$1h2;
#X obj 425 94 r \$1h3;
#X obj 507 93 r \$1h4;
#X obj 598 94 r \$1h5;
#X obj 680 93 r \$1h6;
#X obj 769 93 r \$1h7;
#X obj 851 92 r \$1h8;
#X obj 939 92 r \$1h9;
#X connect 0 0 1 0;
#X connect 1 0 2 0;
#X connect 2 0 3 0;
#X connect 2 0 12 0;
#X connect 2 0 41 0;
#X connect 2 0 42 0;
#X connect 2 0 43 0;
#X connect 2 0 44 0;
#X connect 2 0 45 0;
#X connect 2 0 46 0;
#X connect 2 0 47 0;
#X connect 3 0 4 0;
#X connect 4 0 5 0;
#X connect 5 0 48 0;
#X connect 6 0 5 1;
#X connect 7 0 6 0;
#X connect 8 0 9 0;
#X connect 9 0 48 0;
#X connect 10 0 9 1;
#X connect 11 0 10 0;
#X connect 12 0 8 0;
#X connect 13 0 14 0;
#X connect 14 0 48 0;
#X connect 15 0 14 1;
#X connect 16 0 15 0;
#X connect 17 0 18 0;
#X connect 18 0 48 0;
#X connect 19 0 18 1;
#X connect 20 0 19 0;
#X connect 21 0 22 0;
#X connect 22 0 48 1;
#X connect 23 0 22 1;
#X connect 24 0 23 0;
#X connect 25 0 26 0;
#X connect 26 0 48 1;
#X connect 27 0 26 1;
#X connect 28 0 27 0;
#X connect 29 0 30 0;
#X connect 30 0 48 1;
#X connect 31 0 30 1;
#X connect 32 0 31 0;
#X connect 33 0 34 0;
#X connect 34 0 48 1;
#X connect 35 0 34 1;
#X connect 36 0 35 0;
#X connect 37 0 38 0;
#X connect 38 0 48 1;
#X connect 39 0 38 1;
#X connect 40 0 39 0;
#X connect 41 0 13 0;
#X connect 42 0 17 0;
#X connect 43 0 21 0;
#X connect 44 0 25 0;
#X connect 45 0 29 0;
#X connect 46 0 33 0;
#X connect 47 0 37 0;
#X connect 48 0 49 0;
#X connect 49 0 50 0;
#X connect 51 0 7 0;
#X connect 52 0 11 0;
#X connect 53 0 16 0;
#X connect 54 0 20 0;
#X connect 55 0 24 0;
#X connect 56 0 28 0;
#X connect 57 0 32 0;
#X connect 58 0 36 0;
#X connect 59 0 40 0;
#X restore 19 72 pd additive;
#N canvas 0 23 450 300 adsr~ 0;
#X floatatom 394 67 5 0 0 0 - - -;
#X obj 394 117 sel 0, f 16;
#X obj 239 156 bng 15 250 50 0 empty empty empty 17 7 0 10 -262144
-1 -1;
#X floatatom 546 148 5 0 0 0 - - -;
#X obj 394 90 / 127;
#X obj 417 417 line~;
#X floatatom 271 236 5 0 0 0 - - -;
#X obj 240 265 pack;
#X msg 238 234 0;
#X obj 628 210 bng 15 250 50 0 empty empty empty 17 7 0 10 -262144
-1 -1;
#X floatatom 661 309 5 0 0 0 - - -;
#X obj 630 338 pack;
#X msg 628 231 1;
#X obj 487 256 del;
#X floatatom 510 231 5 0 0 0 - - -;
#X obj 486 210 bng 15 250 50 0 empty empty empty 17 7 0 10 -262144
-1 -1;
#X floatatom 520 278 5 0 0 0 - - -;
#X obj 520 301 dbtorms;
#X obj 487 302 f;
#X obj 487 352 pack;
#X floatatom 530 351 5 0 0 0 - - -;
#X obj 417 441 *~;
#X obj 546 171 t b b f, f 24;
#X floatatom 711 419 5 0 0 0 - - -;
#X obj 239 176 t b b;
#X msg 288 177 stop;
#X obj 394 37 inlet;
#X obj 417 465 outlet~;
#X text 436 32 note on: 1-127;
#X text 436 45 note off: 0;
#X text 438 89 velocity devided by 127 to stay between 0 & 127;
#X text 247 416 ramp to avoid roughness;
#X text 197 138 release:;
#X text 444 190 decay:;
#X text 575 193 attack:;
#X text 389 17 input for adsr will only be velocity!;
#X text 377 134 note off;
#X text 469 134 note on;
#X text 314 257 delay until attack ends:;
#X text 24 13 S: value between 0~1 \, amplitude;
#X text 25 27 A \, D \, R: values of time (ms);
#X obj 271 212 r \$1R;
#X obj 510 207 r \$1A;
#X obj 520 254 r \$1S;
#X obj 661 285 r \$1A;
#X obj 530 327 r \$1D;
#X connect 0 0 4 0;
#X connect 1 0 2 0;
#X connect 1 1 3 0;
#X connect 2 0 24 0;
#X connect 3 0 22 0;
#X connect 4 0 1 0;
#X connect 5 0 21 0;
#X connect 6 0 7 1;
#X connect 7 0 5 0;
#X connect 8 0 7 0;
#X connect 9 0 12 0;
#X connect 10 0 11 1;
#X connect 11 0 5 0;
#X connect 12 0 11 0;
#X connect 13 0 18 0;
#X connect 14 0 13 1;
#X connect 15 0 13 0;
#X connect 16 0 17 0;
#X connect 17 0 18 1;
#X connect 18 0 19 0;
#X connect 19 0 5 0;
#X connect 20 0 19 1;
#X connect 21 0 27 0;
#X connect 22 0 15 0;
#X connect 22 1 9 0;
#X connect 22 2 23 0;
#X connect 23 0 21 1;
#X connect 24 0 8 0;
#X connect 24 1 25 0;
#X connect 25 0 13 0;
#X connect 26 0 0 0;
#X connect 41 0 6 0;
#X connect 42 0 14 0;
#X connect 43 0 16 0;
#X connect 44 0 10 0;
#X connect 45 0 20 0;
#X restore 104 72 pd adsr~;
#X connect 0 0 3 0;
#X connect 1 0 4 0;
#X connect 1 1 5 0;
#X connect 2 0 1 0;
#X connect 4 0 0 0;
#X connect 5 0 0 1;
#X restore 488 271 pd voice;
#N canvas 55 59 1385 725 seq4 1;
#X floatatom 178 59 5 0 0 0 - - -;
#X obj 146 88 metro;
#X obj 102 89 sel 0;
#X obj 102 114 bng 15 250 50 0 empty empty empty 17 7 0 10 -262144
-1 -1;
#X msg 102 134 -1;
#X floatatom 146 182 5 0 0 0 - - -;
#X obj 146 229 + 1;
#X floatatom 146 253 5 0 0 0 - - -;
#X obj 146 303 bng 15 250 50 0 empty empty empty 17 7 0 10 -262144
-1 -1;
#X obj 210 159 + 1;
#X obj 146 121 bng 15 250 50 0 empty empty empty 17 7 0 10 -262144
-1 -1;
#X obj 236 304 bng 15 250 50 0 empty empty empty 17 7 0 10 -262144
-1 -1;
#X obj 416 305 bng 15 250 50 0 empty empty empty 17 7 0 10 -262144
-1 -1;
#X msg 236 328 64;
#X floatatom 146 378 5 0 0 0 - - -;
#X obj 146 425 + 1;
#X obj 185 354 + 1;
#X obj 178 11 loadbang;
#X floatatom 146 449 5 0 0 0 - - -;
#X obj 146 354 f 1;
#X obj 146 158 f 1;
#X obj 146 499 bng 15 250 50 0 empty empty empty 17 7 0 10 -262144
-1 -1;
#X obj 206 500 bng 15 250 50 0 empty empty empty 17 7 0 10 -262144
-1 -1;
#X obj 267 500 bng 15 250 50 0 empty empty empty 17 7 0 10 -262144
-1 -1;
#X obj 146 205 % 4;
#X floatatom 417 377 5 0 0 0 - - -;
#X obj 417 424 + 1;
#X obj 459 352 + 1;
#X floatatom 417 448 5 0 0 0 - - -;
#X obj 417 353 f 1;
#X obj 417 498 bng 15 250 50 0 empty empty empty 17 7 0 10 -262144
-1 -1;
#X obj 474 498 bng 15 250 50 0 empty empty empty 17 7 0 10 -262144
-1 -1;
#X obj 531 498 bng 15 250 50 0 empty empty empty 17 7 0 10 -262144
-1 -1;
#X obj 146 276 sel 1 2 3 4, f 52;
#X obj 326 304 bng 15 250 50 0 empty empty empty 17 7 0 10 -262144
-1 -1;
#X msg 326 328 67;
#X obj 196 699 s \$1notes;
#X obj 597 169 bng 15 250 50 0 empty empty Jimmy_Smith 17 7 0 13 -260353
-1 -1;
#X obj 706 169 bng 15 250 50 0 empty empty Grrove_Holmes 17 7 0 13
-219200 -1 -1;
#X obj 830 169 bng 15 250 50 0 empty empty Erroll_Garner 17 7 0 13
-2432 -1 -1;
#X obj 954 169 bng 15 250 50 0 empty empty Charles_Earland 17 7 0 13
-260063 -1 -1;
#X obj 1095 169 bng 15 250 50 0 empty empty Full_Organ 17 7 0 13 -2241
-1 -1;
#X msg 598 200 \; 1h1 1 \; 1h2 1 \; 1h3 1 \; 1h4 0 \; 1h5 0 \; 1h6
0 \; 1h7 0 \; 1h8 0 \; 1h9 0 \; 1A 10 \; 1D 25 \; 1S 115 \; 1R 50 \;
;
#X msg 706 203 \; 2h1 1 \; 2h2 1 \; 2h3 1 \; 2h4 0 \; 2h5 0 \; 2h6
0 \; 2h7 0 \; 2h8 0 \; 2h9 0.75 \; 2A 5 \; 2D 15 \; 2S 120 \; 2R 30
\;;
#X msg 954 203 \; 4h1 1 \; 4h2 1 \; 4h3 1 \; 4h4 1 \; 4h5 0 \; 4h6
0 \; 4h7 0 \; 4h8 0 \; 4h9 0.75 \; 4A 3 \; 4D 5 \; 4S 100 \; 4R 10
\;;
#X msg 1095 203 \; 5h1 1 \; 5h2 1 \; 5h3 1 \; 5h4 1 \; 5h5 1 \; 5h6
1 \; 5h7 1 \; 5h8 1 \; 5h9 1 \; 5A 30 \; 5D 50 \; 5S 105 \; 5R 50 \;
;
#X obj 598 131 sel 1 2 3 4 5, f 83;
#X obj 601 77 * \$1;
#X msg 601 52 1;
#X obj 132 51 r ON;
#X obj 24 82 loadbang;
#X msg 178 35 1000;
#X obj 327 500 bng 15 250 50 0 empty empty empty 17 7 0 10 -262144
-1 -1;
#X obj 146 472 sel 1 2 3 4, f 35;
#X obj 417 471 sel 1 2 3 4, f 33;
#X obj 588 498 bng 15 250 50 0 empty empty empty 17 7 0 10 -262144
-1 -1;
#X obj 146 401 % 4;
#X obj 417 400 % 4;
#X obj 101 310 sel 0;
#X obj 101 335 bng 15 250 50 0 empty empty empty 17 7 0 10 -262144
-1 -1;
#X msg 101 355 -1;
#X obj 101 281 r ON;
#X obj 35 303 loadbang;
#X obj 510 331 sel 0;
#X obj 510 356 bng 15 250 50 0 empty empty empty 17 7 0 10 -262144
-1 -1;
#X msg 510 376 -1;
#X obj 510 302 r ON;
#X obj 444 324 loadbang;
#X msg 830 203 \; 3h1 1 \; 3h2 0 \; 3h3 0 \; 3h4 0 \; 3h5 0 \; 3h6
0.75 \; 3h7 1 \; 3h8 1 \; 3h9 0.75 \; 3A 20 \; 3D 55 \; 3S 125 \; 3R
30 \;;
#X obj 196 642 makenote 60 500;
#X msg 146 519 60;
#X msg 206 520 59;
#X msg 267 520 57;
#X msg 327 520 59;
#X msg 417 518 72;
#X msg 474 518 71;
#X msg 531 518 69;
#X msg 588 518 71;
#X obj 196 666 pack f f;
#X connect 0 0 1 1;
#X connect 1 0 10 0;
#X connect 1 0 48 0;
#X connect 2 0 3 0;
#X connect 3 0 4 0;
#X connect 4 0 20 0;
#X connect 5 0 24 0;
#X connect 6 0 7 0;
#X connect 7 0 33 0;
#X connect 8 0 19 0;
#X connect 9 0 20 1;
#X connect 10 0 20 0;
#X connect 11 0 13 0;
#X connect 12 0 29 0;
#X connect 13 0 69 0;
#X connect 14 0 56 0;
#X connect 15 0 18 0;
#X connect 16 0 19 1;
#X connect 17 0 51 0;
#X connect 18 0 53 0;
#X connect 19 0 14 0;
#X connect 19 0 16 0;
#X connect 20 0 5 0;
#X connect 20 0 9 0;
#X connect 21 0 70 0;
#X connect 22 0 71 0;
#X connect 23 0 72 0;
#X connect 24 0 6 0;
#X connect 25 0 57 0;
#X connect 26 0 28 0;
#X connect 27 0 29 1;
#X connect 28 0 54 0;
#X connect 29 0 25 0;
#X connect 29 0 27 0;
#X connect 30 0 74 0;
#X connect 31 0 75 0;
#X connect 32 0 76 0;
#X connect 33 0 8 0;
#X connect 33 1 11 0;
#X connect 33 2 34 0;
#X connect 33 3 12 0;
#X connect 34 0 35 0;
#X connect 35 0 69 0;
#X connect 37 0 42 0;
#X connect 38 0 43 0;
#X connect 39 0 68 0;
#X connect 40 0 44 0;
#X connect 41 0 45 0;
#X connect 46 0 37 0;
#X connect 46 3 40 0;
#X connect 47 0 46 0;
#X connect 48 0 47 0;
#X connect 49 0 1 0;
#X connect 49 0 2 0;
#X connect 50 0 3 0;
#X connect 51 0 0 0;
#X connect 52 0 73 0;
#X connect 53 0 21 0;
#X connect 53 1 22 0;
#X connect 53 2 23 0;
#X connect 53 3 52 0;
#X connect 54 0 30 0;
#X connect 54 1 31 0;
#X connect 54 2 32 0;
#X connect 54 3 55 0;
#X connect 55 0 77 0;
#X connect 56 0 15 0;
#X connect 57 0 26 0;
#X connect 58 0 59 0;
#X connect 59 0 60 0;
#X connect 60 0 19 0;
#X connect 61 0 58 0;
#X connect 62 0 59 0;
#X connect 63 0 64 0;
#X connect 64 0 65 0;
#X connect 65 0 29 0;
#X connect 66 0 63 0;
#X connect 67 0 64 0;
#X connect 69 0 78 0;
#X connect 69 1 78 1;
#X connect 70 0 69 0;
#X connect 71 0 69 0;
#X connect 72 0 69 0;
#X connect 73 0 69 0;
#X connect 74 0 69 0;
#X connect 75 0 69 0;
#X connect 76 0 69 0;
#X connect 77 0 69 0;
#X connect 78 0 36 0;
#X restore 26 44 pd seq4;
#N canvas 657 76 783 584 chords 0;
#X restore 27 69 pd chords;
#N canvas 804 162 450 300 voice 0;
#X obj 55 108 *~;
#X obj 46 39 unpack;
#X obj 46 12 inlet;
#X obj 55 132 outlet~;
#N canvas 0 23 1137 576 additive 0;
#X obj 32 55 inlet;
#X obj 32 79 mtof;
#X floatatom 32 103 5 0 0 0 - - -;
#X obj 41 264 *~ 0.5;
#X obj 41 288 osc~;
#X obj 41 312 *~;
#X obj 253 145 line~;
#X obj 254 119 pack f 30;
#X obj 123 287 osc~;
#X obj 123 311 *~;
#X obj 335 144 line~;
#X obj 336 118 pack f 30;
#X obj 123 263 *~ 0.666667;
#X obj 212 287 osc~;
#X obj 212 311 *~;
#X obj 424 144 line~;
#X obj 425 118 pack f 30;
#X obj 294 286 osc~;
#X obj 294 310 *~;
#X obj 506 143 line~;
#X obj 507 117 pack f 30;
#X obj 385 287 osc~;
#X obj 385 311 *~;
#X obj 597 144 line~;
#X obj 598 118 pack f 30;
#X obj 467 286 osc~;
#X obj 467 310 *~;
#X obj 679 143 line~;
#X obj 680 117 pack f 30;
#X obj 556 286 osc~;
#X obj 556 310 *~;
#X obj 768 143 line~;
#X obj 769 117 pack f 30;
#X obj 638 285 osc~;
#X obj 638 309 *~;
#X obj 850 142 line~;
#X obj 851 116 pack f 30;
#X obj 726 285 osc~;
#X obj 726 309 *~;
#X obj 938 142 line~;
#X obj 939 116 pack f 30;
#X obj 212 263 *~ 1;
#X obj 294 262 *~ 2;
#X obj 385 263 *~ 3;
#X obj 467 262 *~ 4;
#X obj 556 262 *~ 5;
#X obj 638 261 *~ 6;
#X obj 726 261 *~ 8;
#X obj 346 389 +~;
#X obj 346 413 /~ 9;
#X obj 346 437 outlet~;
#X obj 254 95 r \$1h1;
#X obj 336 94 r \$1h2;
#X obj 425 94 r \$1h3;
#X obj 507 93 r \$1h4;
#X obj 598 94 r \$1h5;
#X obj 680 93 r \$1h6;
#X obj 769 93 r \$1h7;
#X obj 851 92 r \$1h8;
#X obj 939 92 r \$1h9;
#X connect 0 0 1 0;
#X connect 1 0 2 0;
#X connect 2 0 3 0;
#X connect 2 0 12 0;
#X connect 2 0 41 0;
#X connect 2 0 42 0;
#X connect 2 0 43 0;
#X connect 2 0 44 0;
#X connect 2 0 45 0;
#X connect 2 0 46 0;
#X connect 2 0 47 0;
#X connect 3 0 4 0;
#X connect 4 0 5 0;
#X connect 5 0 48 0;
#X connect 6 0 5 1;
#X connect 7 0 6 0;
#X connect 8 0 9 0;
#X connect 9 0 48 0;
#X connect 10 0 9 1;
#X connect 11 0 10 0;
#X connect 12 0 8 0;
#X connect 13 0 14 0;
#X connect 14 0 48 0;
#X connect 15 0 14 1;
#X connect 16 0 15 0;
#X connect 17 0 18 0;
#X connect 18 0 48 0;
#X connect 19 0 18 1;
#X connect 20 0 19 0;
#X connect 21 0 22 0;
#X connect 22 0 48 1;
#X connect 23 0 22 1;
#X connect 24 0 23 0;
#X connect 25 0 26 0;
#X connect 26 0 48 1;
#X connect 27 0 26 1;
#X connect 28 0 27 0;
#X connect 29 0 30 0;
#X connect 30 0 48 1;
#X connect 31 0 30 1;
#X connect 32 0 31 0;
#X connect 33 0 34 0;
#X connect 34 0 48 1;
#X connect 35 0 34 1;
#X connect 36 0 35 0;
#X connect 37 0 38 0;
#X connect 38 0 48 1;
#X connect 39 0 38 1;
#X connect 40 0 39 0;
#X connect 41 0 13 0;
#X connect 42 0 17 0;
#X connect 43 0 21 0;
#X connect 44 0 25 0;
#X connect 45 0 29 0;
#X connect 46 0 33 0;
#X connect 47 0 37 0;
#X connect 48 0 49 0;
#X connect 49 0 50 0;
#X connect 51 0 7 0;
#X connect 52 0 11 0;
#X connect 53 0 16 0;
#X connect 54 0 20 0;
#X connect 55 0 24 0;
#X connect 56 0 28 0;
#X connect 57 0 32 0;
#X connect 58 0 36 0;
#X connect 59 0 40 0;
#X restore 19 72 pd additive;
#N canvas 0 23 450 300 adsr~ 0;
#X floatatom 394 67 5 0 0 0 - - -;
#X obj 394 117 sel 0, f 16;
#X obj 239 156 bng 15 250 50 0 empty empty empty 17 7 0 10 -262144
-1 -1;
#X floatatom 546 148 5 0 0 0 - - -;
#X obj 394 90 / 127;
#X obj 417 417 line~;
#X floatatom 271 236 5 0 0 0 - - -;
#X obj 240 265 pack;
#X msg 238 234 0;
#X obj 628 210 bng 15 250 50 0 empty empty empty 17 7 0 10 -262144
-1 -1;
#X floatatom 661 309 5 0 0 0 - - -;
#X obj 630 338 pack;
#X msg 628 231 1;
#X obj 487 256 del;
#X floatatom 510 231 5 0 0 0 - - -;
#X obj 486 210 bng 15 250 50 0 empty empty empty 17 7 0 10 -262144
-1 -1;
#X floatatom 520 278 5 0 0 0 - - -;
#X obj 520 301 dbtorms;
#X obj 487 302 f;
#X obj 487 352 pack;
#X floatatom 530 351 5 0 0 0 - - -;
#X obj 417 441 *~;
#X obj 546 171 t b b f, f 24;
#X floatatom 711 419 5 0 0 0 - - -;
#X obj 239 176 t b b;
#X msg 288 177 stop;
#X obj 394 37 inlet;
#X obj 417 465 outlet~;
#X text 436 32 note on: 1-127;
#X text 436 45 note off: 0;
#X text 438 89 velocity devided by 127 to stay between 0 & 127;
#X text 247 416 ramp to avoid roughness;
#X text 197 138 release:;
#X text 444 190 decay:;
#X text 575 193 attack:;
#X text 389 17 input for adsr will only be velocity!;
#X text 377 134 note off;
#X text 469 134 note on;
#X text 314 257 delay until attack ends:;
#X text 24 13 S: value between 0~1 \, amplitude;
#X text 25 27 A \, D \, R: values of time (ms);
#X obj 271 212 r \$1R;
#X obj 510 207 r \$1A;
#X obj 520 254 r \$1S;
#X obj 661 285 r \$1A;
#X obj 530 327 r \$1D;
#X connect 0 0 4 0;
#X connect 1 0 2 0;
#X connect 1 1 3 0;
#X connect 2 0 24 0;
#X connect 3 0 22 0;
#X connect 4 0 1 0;
#X connect 5 0 21 0;
#X connect 6 0 7 1;
#X connect 7 0 5 0;
#X connect 8 0 7 0;
#X connect 9 0 12 0;
#X connect 10 0 11 1;
#X connect 11 0 5 0;
#X connect 12 0 11 0;
#X connect 13 0 18 0;
#X connect 14 0 13 1;
#X connect 15 0 13 0;
#X connect 16 0 17 0;
#X connect 17 0 18 1;
#X connect 18 0 19 0;
#X connect 19 0 5 0;
#X connect 20 0 19 1;
#X connect 21 0 27 0;
#X connect 22 0 15 0;
#X connect 22 1 9 0;
#X connect 22 2 23 0;
#X connect 23 0 21 1;
#X connect 24 0 8 0;
#X connect 24 1 25 0;
#X connect 25 0 13 0;
#X connect 26 0 0 0;
#X connect 41 0 6 0;
#X connect 42 0 14 0;
#X connect 43 0 16 0;
#X connect 44 0 10 0;
#X connect 45 0 20 0;
#X restore 104 72 pd adsr~;
#X connect 0 0 3 0;
#X connect 1 0 4 0;
#X connect 1 1 5 0;
#X connect 2 0 1 0;
#X connect 4 0 0 0;
#X connect 5 0 0 1;
#X restore 46 271 pd voice;
#X connect 0 0 15 0;
#X connect 3 0 6 0;
#X connect 4 0 6 1;
#X connect 5 0 6 2;
#X connect 6 0 12 0;
#X connect 10 0 13 0;
#X connect 12 0 29 0;
#X connect 12 1 20 0;
#X connect 12 2 21 0;
#X connect 12 3 22 0;
#X connect 12 4 23 0;
#X connect 12 5 24 0;
#X connect 12 6 25 0;
#X connect 12 7 26 0;
#X connect 13 0 11 0;
#X connect 13 0 11 1;
#X connect 15 0 3 0;
#X connect 15 1 4 0;
#X connect 15 2 5 0;
#X connect 17 0 15 1;
#X connect 18 0 0 0;
#X connect 18 1 17 0;
#X connect 19 0 18 0;
#X connect 20 0 10 0;
#X connect 21 0 10 0;
#X connect 22 0 10 0;
#X connect 23 0 10 1;
#X connect 24 0 10 1;
#X connect 25 0 10 1;
#X connect 26 0 10 1;
#X connect 29 0 10 0;
