#N canvas 553 108 450 300 12;
#X obj 79 140 dac~;
#X obj 80 52 osc~ 440;
#X obj 80 104 *~;
#X obj 149 67 r amplitudePd;
#X floatatom 210 97 5 0 0 0 - - -;
#X obj 149 126 line~;
#X msg 149 95 \$1 50;
#N canvas 990 245 450 300 subtest 1;
#X obj 79 174 dac~;
#X obj 80 138 *~;
#X obj 149 101 r amplitudePd;
#X floatatom 210 131 5 0 0 0 - - -;
#X obj 149 160 line~;
#X msg 149 129 \$1 50;
#X obj 80 86 osc~ 440;
#X connect 1 0 0 0;
#X connect 1 0 0 1;
#X connect 2 0 5 0;
#X connect 2 0 3 0;
#X connect 4 0 1 1;
#X connect 5 0 4 0;
#X connect 6 0 1 0;
#X restore 279 182 pd subtest;
#X obj 275 89 testabstraction;
#X connect 1 0 2 0;
#X connect 2 0 0 0;
#X connect 2 0 0 1;
#X connect 3 0 6 0;
#X connect 3 0 4 0;
#X connect 5 0 2 1;
#X connect 6 0 5 0;
