#N canvas 764 278 450 300 12;
#X obj 68 16 bng 15 250 50 0 empty empty empty 17 7 0 10 -262144 -1
-1;
#X obj 68 36 t b b;
#X obj 68 86 pack, f 5;
#X msg 68 62 1;
#X obj 100 62 r dur-ms;
#X connect 0 0 1 0;
#X connect 1 0 3 0;
#X connect 3 0 2 0;
#X connect 4 0 2 1;
