#N canvas 349 241 450 300 12;
#X obj 79 174 dac~;
#X obj 80 138 *~;
#X obj 149 101 r amplitudePd;
#X floatatom 210 131 5 0 0 0 - - -;
#X obj 149 160 line~;
#X msg 149 129 \$1 50;
#X obj 80 86 osc~ 330;
#X connect 1 0 0 0;
#X connect 1 0 0 1;
#X connect 2 0 5 0;
#X connect 2 0 3 0;
#X connect 4 0 1 1;
#X connect 5 0 4 0;
#X connect 6 0 1 0;
