#N canvas 593 401 320 350 12;
#X obj 55 108 *~;
#X obj 46 39 unpack;
#X obj 46 12 inlet;
#X obj 55 132 outlet~;
#X obj 19 72 additive \$1;
#X obj 110 72 adsr~ \$1;
#X connect 0 0 3 0;
#X connect 1 0 4 0;
#X connect 1 1 5 0;
#X connect 2 0 1 0;
#X connect 4 0 0 0;
#X connect 5 0 0 1;
